<svg width="24" height="24" viewBox="0 0 24 24" fill="none" xmlns="http://www.w3.org/2000/svg">
<g clip-path="url(#clip0_3402_2060)">
<path d="M7.583 17.3203C6.553 16.2263 6 14.9993 6 13.0103C6 9.51027 8.457 6.37327 12.03 4.82227L12.923 6.20027C9.588 8.00427 8.936 10.3453 8.676 11.8213C9.213 11.5433 9.916 11.4463 10.605 11.5103C12.409 11.6773 13.831 13.1583 13.831 14.9993C13.831 15.9275 13.4623 16.8178 12.8059 17.4741C12.1495 18.1305 11.2593 18.4993 10.331 18.4993C9.258 18.4993 8.232 18.0093 7.583 17.3203ZM17.583 17.3203C16.553 16.2263 16 14.9993 16 13.0103C16 9.51027 18.457 6.37327 22.03 4.82227L22.923 6.20027C19.588 8.00427 18.936 10.3453 18.676 11.8213C19.213 11.5433 19.916 11.4463 20.605 11.5103C22.409 11.6773 23.831 13.1583 23.831 14.9993C23.831 15.9275 23.4623 16.8178 22.8059 17.4741C22.1495 18.1305 21.2593 18.4993 20.331 18.4993C19.258 18.4993 18.232 18.0093 17.583 17.3203Z" fill="#F2C19D"/>
</g>
<defs>
<clipPath id="clip0_3402_2060">
<rect width="24" height="24" fill="white"/>
</clipPath>
</defs>
</svg>
