<svg width="85" height="86" viewBox="0 0 85 86" fill="none" xmlns="http://www.w3.org/2000/svg">
<path d="M42.6504 82.5333C21.3628 82.5333 4.04688 65.2098 4.04688 43.9297C4.04688 22.6421 21.3628 5.32617 42.6504 5.32617C63.938 5.32617 81.2539 22.6421 81.2539 43.9297C81.2615 65.2173 63.938 82.5333 42.6504 82.5333Z" stroke="#025B5D" stroke-width="2.878" stroke-miterlimit="10"/>
<path d="M57.0642 28.6222C57.2824 26.9598 57.4855 25.335 57.7111 23.5899C58.1023 23.6877 58.7116 23.8005 59.2983 24.0036C61.2014 24.6656 62.9917 25.5005 64.0899 27.3209C65.6996 29.9987 65.0603 33.2408 62.5629 35.1364C60.7726 36.4979 58.7341 37.2501 56.5151 37.5133C55.8983 37.5886 55.6426 37.8443 55.4545 38.4235C53.9726 42.9819 52.4231 47.5103 50.9638 52.0762C50.2417 54.3253 48.6996 55.8072 46.7063 56.8527C39.5377 60.6138 32.3465 64.3222 25.178 68.0757C23.997 68.6926 22.8762 68.8806 21.7027 68.1284C19.8297 66.9173 19.8824 64.2169 21.8231 63.1187C23.1695 62.3589 24.5461 61.6443 25.9302 60.9598C26.3965 60.7266 26.5094 60.4408 26.547 59.9518C26.7952 57.0408 27.066 54.1448 27.3819 51.2412C27.4421 50.6695 27.6828 50.1129 27.8934 49.5713C28.7585 47.3072 29.9094 46.5173 32.339 46.5249C34.9417 46.5324 37.5443 46.57 40.147 46.5549C40.4253 46.5549 40.8766 46.3669 40.9443 46.1713C41.9072 43.358 42.8173 40.5297 43.7726 37.6036C43.2611 37.4833 42.7948 37.3629 42.3209 37.2576C40.7036 36.9041 39.2142 36.2647 37.8979 35.2341C34.3324 32.4585 34.6558 27.3434 38.62 25.1395C39.9288 24.4098 41.3957 23.9735 42.6895 23.4395C42.9151 25.2673 43.1182 26.9147 43.3364 28.6598C42.8775 28.8403 42.1554 29.066 41.4934 29.3895C40.2974 29.9837 40.2523 30.7585 41.3806 31.443C43.0881 32.466 44.9988 32.7518 46.9395 32.7669C49.5722 32.7895 52.2125 32.8572 54.8226 32.6465C56.2368 32.5337 57.666 32.0147 58.9824 31.443C60.1558 30.939 60.1182 30.0815 59.0049 29.4722C58.343 29.081 57.5833 28.8403 57.0642 28.6222ZM33.1364 52.5726C32.9634 54.1673 32.7979 55.762 32.6023 57.5297C35.7841 55.8824 38.7704 54.3328 41.7492 52.7833C41.7341 52.7156 41.7191 52.6403 41.7116 52.5726C38.9058 52.5726 36.1001 52.5726 33.1364 52.5726Z" fill="#025B5D"/>
<path d="M56.1833 25.2223C56.1833 28.5321 53.543 31.1949 50.2408 31.2175C46.9386 31.24 44.208 28.5095 44.2306 25.1923C44.2457 21.9201 46.9687 19.2272 50.2333 19.2423C53.5355 19.2573 56.1833 21.9201 56.1833 25.2223Z" fill="#025B5D"/>
<path d="M30.1921 70.6857C29.7408 70.6857 29.3045 70.4375 29.0864 70.0012C28.7855 69.3919 29.0262 68.6472 29.6355 68.3463L52.4952 56.9052L57.6855 40.4468L63.2895 37.0242C63.8687 36.6707 64.6284 36.8512 64.9819 37.4379C65.3355 38.0247 65.155 38.7769 64.5682 39.1379L59.7541 42.0716L54.5337 58.6353L30.7412 70.5578C30.5607 70.6406 30.3727 70.6857 30.1921 70.6857Z" fill="#025B5D"/>
</svg>
