<svg width="85" height="86" viewBox="0 0 85 86" fill="none" xmlns="http://www.w3.org/2000/svg">
<path d="M42.6504 82.2911C21.3628 82.2911 4.04688 64.9676 4.04688 43.6875C4.04688 22.3999 21.3628 5.08398 42.6504 5.08398C63.938 5.08398 81.2539 22.3999 81.2539 43.6875C81.2539 64.9676 63.938 82.2911 42.6504 82.2911Z" stroke="#025B5D" stroke-width="2.878" stroke-miterlimit="10"/>
<path d="M39.3766 28.584C35.608 28.584 32.554 31.638 32.554 35.4066H46.1992C46.1992 31.638 43.1452 28.584 39.3766 28.584ZM56.1209 38.4154C55.7222 36.7004 54.1877 35.4141 52.3523 35.4141H46.2067C46.2067 36.4973 45.9509 37.5127 45.4921 38.4154H56.1209ZM58.8965 40.7698H27.5819C26.935 40.7698 26.4085 40.2433 26.4085 39.5964C26.4085 38.9495 26.935 38.4154 27.5819 38.4154H33.2686C32.8173 37.5127 32.554 36.4973 32.554 35.4141H26.4009C24.2647 35.4141 22.5195 37.1592 22.5195 39.288V62.3959C22.5195 64.5322 24.2647 66.2698 26.4009 66.2698H58.8965C61.0253 66.2698 62.7779 64.5247 62.7779 62.3959V44.6437C62.7704 42.515 61.0253 40.7698 58.8965 40.7698ZM51.254 56.6189C49.1328 56.6189 47.4178 54.8964 47.4178 52.7827C47.4178 50.6614 49.1403 48.9389 51.254 48.9389C53.3753 48.9389 55.0903 50.6614 55.0903 52.7827C55.0903 54.8964 53.3753 56.6189 51.254 56.6189Z" fill="#025B5D"/>
<path d="M31.6125 31.3656C30.928 31.3656 30.3789 30.8165 30.3789 30.132V21.7825C30.3789 21.0979 30.928 20.5488 31.6125 20.5488C32.297 20.5488 32.8462 21.0979 32.8462 21.7825V30.132C32.8462 30.809 32.2895 31.3656 31.6125 31.3656Z" fill="#025B5D"/>
<path d="M38.3235 26.4845C37.639 26.4845 37.0898 25.9354 37.0898 25.2509V16.8938C37.0898 16.2093 37.639 15.6602 38.3235 15.6602C39.008 15.6602 39.5571 16.2093 39.5571 16.8938V25.2509C39.5571 25.9354 39.008 26.4845 38.3235 26.4845Z" fill="#025B5D"/>
<path d="M44.5383 28.6664C43.8538 28.6664 43.3047 28.1173 43.3047 27.4328V19.0832C43.3047 18.3987 43.8538 17.8496 44.5383 17.8496C45.2228 17.8496 45.7719 18.3987 45.7719 19.0832V27.4328C45.7719 28.1173 45.2153 28.6664 44.5383 28.6664Z" fill="#025B5D"/>
</svg>
