<svg width="85" height="86" viewBox="0 0 85 86" fill="none" xmlns="http://www.w3.org/2000/svg">
<path d="M42.6504 82.5333C21.3628 82.5333 4.04688 65.2098 4.04688 43.9297C4.04688 22.6421 21.3628 5.32617 42.6504 5.32617C63.938 5.32617 81.2539 22.6421 81.2539 43.9297C81.2615 65.2173 63.938 82.5333 42.6504 82.5333Z" stroke="#025B5D" stroke-width="2.878" stroke-miterlimit="10"/>
<g clip-path="url(#clip0_3402_2643)">
<path d="M64.4151 43C64.4151 42.1172 64.3635 41.2466 64.2638 40.3906C64.1356 39.2899 64.5717 38.1985 65.4048 37.4676L68.8342 34.4589C69.9982 33.4378 70.2597 31.7278 69.4543 30.4053L65.7864 24.3835C64.981 23.0611 63.3415 22.5089 61.9002 23.0747L57.6251 24.7526C56.5904 25.1587 55.4275 25.0165 54.5057 24.3954C53.5154 23.7282 52.4688 23.1381 51.3747 22.6335C50.3678 22.1692 49.6449 21.2507 49.454 20.1586L48.6637 15.6384C48.397 14.1129 47.0727 13 45.5242 13H38.4734C36.9249 13 35.6005 14.1129 35.334 15.6382L34.5437 20.1585C34.3528 21.2506 33.6298 22.1692 32.623 22.6334C31.5289 23.138 30.4823 23.7281 29.492 24.3953C28.5701 25.0162 27.4071 25.1585 26.3725 24.7525L22.0974 23.0746C20.656 22.5089 19.0165 23.0611 18.2111 24.3834L14.5434 30.4052C13.738 31.7276 13.9995 33.4376 15.1635 34.4588L18.5929 37.4675C19.426 38.1984 19.8621 39.2898 19.7338 40.3905C19.6341 41.2465 19.5825 42.1172 19.5825 42.9999C19.5825 43.8826 19.6342 44.7533 19.7338 45.6093C19.8621 46.71 19.426 47.8014 18.5929 48.5322L15.1635 51.5409C13.9995 52.5621 13.738 54.2721 14.5434 55.5946L18.2111 61.6164C19.0165 62.9388 20.6561 63.4909 22.0974 62.9252L26.3724 61.2473C27.4071 60.8412 28.5701 60.9835 29.4918 61.6045C30.4822 62.2716 31.5288 62.8618 32.6229 63.3664C33.6297 63.8307 34.3527 64.7492 34.5436 65.8413L35.3338 70.3615C35.6005 71.8871 36.9249 72.5294 38.4734 72.5294H45.5242C47.0727 72.5294 48.397 71.8871 48.6636 70.3618L49.4538 65.8415C49.6448 64.7494 50.3677 63.8308 51.3746 63.3666C52.4687 62.862 53.5153 62.2719 54.5056 61.6047C55.4275 60.9838 56.5904 60.8415 57.625 61.2475L61.9001 62.9254C63.3415 63.4912 64.9809 62.9389 65.7863 61.6166L69.4541 55.5948C70.2595 54.2724 69.998 52.5624 68.834 51.5412L65.4046 48.5325C64.5715 47.8016 64.1354 46.7102 64.2636 45.6095C64.3636 44.7534 64.4151 43.8828 64.4151 43Z" fill="#025B5D"/>
<path d="M48.6615 70.362C48.9759 68.5639 49.1339 66.742 49.1339 64.9166V52.4512H34.8594V64.9166C34.8594 66.742 35.0174 68.5639 35.3317 70.362C35.5984 71.8873 36.9228 73.0002 38.4713 73.0002H45.5221C47.0706 73.0002 48.3949 71.8873 48.6615 70.362Z" fill="#EFEFEF"/>
<path d="M57.1 42.9997C57.1 51.3385 50.3401 58.0984 42.0013 58.0985C33.6625 58.0986 26.9172 51.366 26.9024 43.0272C26.8933 37.9506 29.3895 33.456 33.2248 30.7121C33.9103 30.2218 34.8634 30.7088 34.8634 31.5515V41.5174C34.8634 42.7294 35.51 43.8494 36.5597 44.4556L40.3047 46.6179C41.3545 47.224 42.6478 47.224 43.6975 46.6179L47.4426 44.4556C48.4923 43.8495 49.1388 42.7295 49.1388 41.5174V31.5512C49.1388 30.7128 50.0873 30.2191 50.7695 30.7064C54.6025 33.4448 57.1 37.9308 57.1 42.9997Z" fill="#EFEFEF"/>
</g>
<defs>
<clipPath id="clip0_3402_2643">
<rect width="60" height="60" fill="white" transform="translate(12 13)"/>
</clipPath>
</defs>
</svg>
