<svg width="55" height="55" viewBox="0 0 55 55" fill="none" xmlns="http://www.w3.org/2000/svg">
<path d="M34.7856 29.2539H39L50.937 29.3481V34.5161C50.9533 34.7902 50.8612 35.0598 50.6806 35.2668C50.5001 35.4737 50.2455 35.6015 49.9717 35.6226H34.1852C34.0555 35.6202 33.9278 35.5906 33.8102 35.5359C33.6927 35.4811 33.5878 35.4024 33.5025 35.3048L32.749 34.4337C32.6669 34.3315 32.5629 34.2488 32.4448 34.1917C32.3268 34.1348 32.1974 34.1047 32.0663 34.104H23.0017C22.8706 34.1047 22.7412 34.1348 22.6231 34.1917C22.505 34.2488 22.4011 34.3315 22.3189 34.4337L21.8127 35.0105C21.7299 35.1111 21.6256 35.192 21.5075 35.247C21.3893 35.302 21.2602 35.3297 21.1299 35.3283H5.27283C5.08707 35.289 4.92169 35.1841 4.80708 35.0327C4.69247 34.8813 4.6363 34.6937 4.64891 34.5043L3.68359 29.2539H34.7856Z" fill="#595959"/>
<path d="M13.4424 39.8497C15.9455 39.8497 17.9747 37.8205 17.9747 35.3174C17.9747 32.8143 15.9455 30.7852 13.4424 30.7852C10.9393 30.7852 8.91016 32.8143 8.91016 35.3174C8.91016 37.8205 10.9393 39.8497 13.4424 39.8497Z" fill="#171314"/>
<path d="M13.4437 37.5298C14.666 37.5298 15.6568 36.539 15.6568 35.3167C15.6568 34.0944 14.666 33.1035 13.4437 33.1035C12.2214 33.1035 11.2305 34.0944 11.2305 35.3167C11.2305 36.539 12.2214 37.5298 13.4437 37.5298Z" fill="#CAC9BF"/>
<path d="M11.8418 35.3168C11.8228 35.0942 11.8501 34.8701 11.9222 34.6586C11.9943 34.4472 12.1095 34.2531 12.2607 34.0885C12.4117 33.9239 12.5954 33.7925 12.7999 33.7026C13.0043 33.6128 13.2253 33.5664 13.4487 33.5664C13.6722 33.5664 13.8931 33.6128 14.0976 33.7026C14.3021 33.7925 14.4857 33.9239 14.6368 34.0885C14.7879 34.2531 14.9031 34.4472 14.9752 34.6586C15.0473 34.8701 15.0747 35.0942 15.0556 35.3168" fill="white"/>
<path d="M13.4451 38.7185C12.7694 38.7185 12.1089 38.5179 11.5473 38.1423C10.9856 37.7666 10.548 37.2327 10.29 36.6082C10.0319 35.9838 9.96503 35.2968 10.0977 34.6342C10.2304 33.9716 10.5567 33.3634 11.0353 32.8863C11.514 32.4095 12.1234 32.0852 12.7864 31.9548C13.4494 31.8244 14.1362 31.8937 14.7597 32.1539C15.3834 32.414 15.9157 32.8535 16.2895 33.4164C16.6632 33.9794 16.8614 34.6406 16.8591 35.3163C16.856 36.2197 16.4949 37.085 15.855 37.7227C15.2151 38.3604 14.3485 38.7185 13.4451 38.7185ZM13.4451 32.1496C12.8199 32.1542 12.21 32.344 11.6923 32.6947C11.1746 33.0455 10.7724 33.5417 10.5363 34.1208C10.3003 34.6997 10.2409 35.3358 10.3657 35.9484C10.4906 36.5611 10.794 37.1233 11.2378 37.5638C11.6816 38.0043 12.2459 38.3035 12.8595 38.4238C13.4731 38.5442 14.1086 38.48 14.6859 38.2397C15.2632 37.9993 15.7564 37.5934 16.1033 37.0732C16.4502 36.5529 16.6354 35.9417 16.6354 35.3163C16.6354 34.8984 16.5527 34.4848 16.3922 34.099C16.2315 33.7133 15.9962 33.3631 15.6996 33.0688C15.4031 32.7744 15.0512 32.5417 14.6643 32.3839C14.2773 32.2262 13.863 32.1466 13.4451 32.1496Z" fill="#595959"/>
<path d="M17.6928 14.6094H5.33203V26.9701H17.6928V14.6094Z" fill="#E2B486"/>
<path opacity="0.16" d="M12.3475 18.8355L11.8531 18.5177L11.4175 18.8355L11.1467 18.447L10.6641 18.8355V14.6211H12.3475V18.8355Z" fill="black"/>
<path opacity="0.16" d="M17.6928 20.6367H5.33203V20.9546H17.6928V20.6367Z" fill="black"/>
<path d="M26.7099 18.5879H18.3281V26.9697H26.7099V18.5879Z" fill="#E2B486"/>
<path opacity="0.16" d="M23.0872 21.4485L22.7458 21.1895L22.4515 21.4014L22.2749 21.1895L21.9453 21.4602V18.5996H23.1225L23.0872 21.4485Z" fill="black"/>
<path opacity="0.16" d="M26.7099 22.6738H18.3281V22.8857H26.7099V22.6738Z" fill="black"/>
<path d="M35.48 28.041H2.85938V30.4896H35.48V28.041Z" fill="#444444"/>
<path d="M33.973 26.9941H2.03516V29.584H33.973V26.9941Z" fill="#D9D9D1"/>
<path d="M33.973 26.9941H2.03516V27.5827H33.973V26.9941Z" fill="#CAC9BF"/>
<path d="M33.9642 22.4492H1.40234V26.9933H33.9642V22.4492Z" fill="#EAE9E4"/>
<path d="M34.8672 34.1388V14.3145H46.1685L52.5843 25.3803V34.1388H47.3339C46.986 33.0377 46.2938 32.0775 45.3592 31.3993C44.4248 30.7211 43.2971 30.361 42.1424 30.3717C41.0012 30.3469 39.8844 30.7041 38.9694 31.3867C38.0544 32.0692 37.3937 33.0378 37.0921 34.1388H34.8672Z" fill="#F7A720"/>
<path opacity="0.15" d="M52.5844 33.1042C48.6285 31.6657 45.0701 29.3097 42.2013 26.2292C39.2182 22.9747 36.7382 19.2925 34.8438 15.3047V34.1401H52.5844V33.1042Z" fill="black"/>
<path d="M36.5664 15.9043V23.3325L50.7165 25.3338L45.2189 15.9043H36.5664Z" fill="#EAE9E4"/>
<path d="M39.0005 26.7811H36.7167C36.6073 26.7811 36.5026 26.7378 36.4254 26.6604C36.348 26.5832 36.3047 26.4784 36.3047 26.3691C36.3047 26.2598 36.348 26.155 36.4254 26.0778C36.5026 26.0005 36.6073 25.957 36.7167 25.957H39.0005C39.1098 25.957 39.2145 26.0005 39.2918 26.0778C39.3691 26.155 39.4125 26.2598 39.4125 26.3691C39.4125 26.4784 39.3691 26.5832 39.2918 26.6604C39.2145 26.7378 39.1098 26.7811 39.0005 26.7811Z" fill="#171314"/>
<path d="M51.6094 28.6779H52.8455C52.8984 28.6779 52.9494 28.699 52.987 28.7365C53.0245 28.7741 53.0456 28.8249 53.0456 28.878V30.7969C53.0456 30.85 53.0245 30.9008 52.987 30.9384C52.9494 30.9759 52.8984 30.997 52.8455 30.997H51.6094V28.6426V28.6779Z" fill="#5D5655"/>
<path d="M48.6172 31.3498H52.8316C52.8879 31.3498 52.9417 31.372 52.9815 31.4118C53.0213 31.4516 53.0435 31.5054 53.0435 31.5617V33.457C53.0435 33.5131 53.0213 33.5671 52.9815 33.6068C52.9417 33.6465 52.8879 33.6689 52.8316 33.6689H48.6172V31.3145V31.3498Z" fill="black"/>
<path d="M51.1629 28.6777H50.5508V30.9968H51.1629V28.6777Z" fill="#5D5655"/>
<path d="M42.2042 39.8497C44.7073 39.8497 46.7364 37.8205 46.7364 35.3174C46.7364 32.8143 44.7073 30.7852 42.2042 30.7852C39.701 30.7852 37.6719 32.8143 37.6719 35.3174C37.6719 37.8205 39.701 39.8497 42.2042 39.8497Z" fill="#171314"/>
<path d="M42.2014 37.5298C43.4237 37.5298 44.4146 36.539 44.4146 35.3167C44.4146 34.0944 43.4237 33.1035 42.2014 33.1035C40.9791 33.1035 39.9883 34.0944 39.9883 35.3167C39.9883 36.539 40.9791 37.5298 42.2014 37.5298Z" fill="#CAC9BF"/>
<path d="M40.5879 35.3168C40.5688 35.0942 40.5963 34.8701 40.6683 34.6586C40.7405 34.4472 40.8556 34.2531 41.0068 34.0885C41.1578 33.9239 41.3415 33.7925 41.5459 33.7026C41.7505 33.6128 41.9714 33.5664 42.1948 33.5664C42.4182 33.5664 42.6392 33.6128 42.8437 33.7026C43.0482 33.7925 43.2318 33.9239 43.383 34.0885C43.534 34.2531 43.6493 34.4472 43.7213 34.6586C43.7935 34.8701 43.8208 35.0942 43.8017 35.3168" fill="white"/>
<path d="M42.203 38.7185C41.5268 38.7208 40.8652 38.5223 40.3019 38.148C39.7387 37.7738 39.2994 37.2408 39.0394 36.6165C38.7796 35.9922 38.711 35.3047 38.8424 34.6415C38.9738 33.9781 39.2991 33.3688 39.7773 32.8906C40.2554 32.4124 40.8648 32.087 41.5281 31.9557C42.1914 31.8243 42.8788 31.8929 43.5032 32.1528C44.1275 32.4127 44.6605 32.852 45.0348 33.4153C45.409 33.9785 45.6075 34.6402 45.6051 35.3164C45.6021 36.2176 45.2427 37.0813 44.6053 37.7186C43.968 38.3559 43.1044 38.7153 42.203 38.7185ZM42.203 32.1497C41.5762 32.1473 40.9628 32.3311 40.4405 32.6775C39.9182 33.0241 39.5105 33.5179 39.269 34.0963C39.0276 34.6748 38.9632 35.3118 39.0839 35.9269C39.2048 36.542 39.5055 37.1073 39.9479 37.5513C40.3903 37.9954 40.9545 38.2981 41.5692 38.4213C42.1837 38.5444 42.821 38.4825 43.4003 38.2432C43.9797 38.0037 44.475 37.5979 44.8235 37.0769C45.1719 36.5559 45.3579 35.9431 45.3579 35.3164C45.3549 34.4795 45.0219 33.6776 44.4312 33.0847C43.8406 32.4918 43.0399 32.1558 42.203 32.1497Z" fill="#595959"/>
<path d="M5.88628 26.9941H5.12109V28.2891H5.88628V26.9941Z" fill="#EAE9E4"/>
<path d="M3.54297 23.5566V24.3218H31.8079V23.5566H3.54297Z" fill="#D9D9D1"/>
<path d="M3.55469 25.1348V25.9H31.8196V25.1348H3.55469Z" fill="#D9D9D1"/>
<path d="M10.2886 26.9941H9.52344V28.2891H10.2886V26.9941Z" fill="#EAE9E4"/>
<path d="M14.691 26.9941H13.9258V28.2891H14.691V26.9941Z" fill="#EAE9E4"/>
<path d="M19.0933 26.9941H18.3281V28.2891H19.0933V26.9941Z" fill="#EAE9E4"/>
<path d="M23.4957 26.9941H22.7305V28.2891H23.4957V26.9941Z" fill="#EAE9E4"/>
<path d="M27.898 26.9941H27.1328V28.2891H27.898V26.9941Z" fill="#EAE9E4"/>
<path d="M32.3043 26.9941H31.5391V28.2891H32.3043V26.9941Z" fill="#EAE9E4"/>
<path d="M33.9741 17.2227H32.7969V22.4495H33.9741V17.2227Z" fill="#D9D9D1"/>
<path d="M33.9741 21.8379H32.7969V22.45H33.9741V21.8379Z" fill="#CAC9BF"/>
<path d="M52.48 23.8979H52.1269C52.0256 23.9045 51.9259 23.8712 51.8489 23.8053C51.7719 23.7393 51.7238 23.6458 51.7148 23.5448V21.1079C51.7294 21.0113 51.7799 20.9236 51.8563 20.8625C51.9326 20.8014 52.0293 20.7714 52.1269 20.7783H52.48C52.5776 20.7714 52.6742 20.8014 52.7506 20.8625C52.827 20.9236 52.8775 21.0113 52.8921 21.1079V23.5448C52.883 23.6458 52.835 23.7393 52.758 23.8053C52.681 23.8712 52.5812 23.9045 52.48 23.8979Z" fill="#444444"/>
<path d="M52.1376 23.8965V24.4262C52.1394 24.457 52.1327 24.4876 52.1181 24.5145C52.1037 24.5416 52.0818 24.5641 52.0552 24.5793L51.3606 24.9207C51.325 24.9386 51.2971 24.9686 51.282 25.0053C51.2668 25.0422 51.2655 25.0831 51.2782 25.1208C51.2842 25.1435 51.2953 25.1646 51.3106 25.1822C51.326 25.2 51.3452 25.2139 51.3668 25.2231C51.3885 25.2322 51.4119 25.2362 51.4352 25.2347C51.4587 25.2333 51.4815 25.2266 51.5019 25.215L52.1964 24.8736C52.2772 24.8298 52.3449 24.7653 52.3924 24.6866C52.44 24.608 52.4658 24.5182 52.4672 24.4262V23.8965H52.1376Z" fill="#595959"/>
<path d="M33.9628 31.0898H25.793V33.5031H33.9628V31.0898Z" fill="#444444"/>
<path opacity="0.1" d="M37.8496 15.9043L42.6526 24.1919L36.5664 23.3325V15.9043H37.8496Z" fill="black"/>
</svg>
