<svg width="55" height="55" viewBox="0 0 55 55" fill="none" xmlns="http://www.w3.org/2000/svg">
<path fill-rule="evenodd" clip-rule="evenodd" d="M5.6351 26.6996C5.75282 26.5113 5.94117 26.3229 6.60041 26.1699L15.7591 24.0509C14.8056 22.8737 13.4047 22.9796 11.6271 23.3681C10.1674 23.6859 5.35257 23.992 2.91573 25.4047C2.62628 25.5583 2.37207 25.7706 2.16935 26.028C1.96665 26.2855 1.81991 26.5824 1.73852 26.8997C1.66858 27.3108 1.68368 27.7318 1.7829 28.1368C1.88211 28.5417 2.06333 28.9221 2.31535 29.2542C3.55143 31.02 7.02421 35.929 8.38978 37.8361C9.75535 39.7432 10.2027 39.6372 11.9214 38.5895L5.87054 28.1123C5.48206 27.4295 5.4232 27.0057 5.6351 26.6996Z" fill="#666666"/>
<path fill-rule="evenodd" clip-rule="evenodd" d="M21.6474 30.3604L25.4498 36.9528C25.5634 37.2032 25.6112 37.4785 25.5886 37.7525C25.5659 38.0265 25.4736 38.2902 25.3203 38.5185C25.0301 38.9691 24.5801 39.293 24.0607 39.4249L15.3375 41.4497C14.895 41.5432 14.4379 41.5432 13.9955 41.4497C13.7231 41.3434 13.4748 41.1832 13.2656 40.9789C13.435 41.327 13.7114 41.6116 14.0544 41.7911C14.7842 42.109 15.6554 41.7911 18.516 41.179L24.1195 39.8841C25.6146 39.5309 27.0861 38.2595 31.1828 35.1752V37.6709H41.3893C41.5417 35.3099 41.9362 32.9706 42.5665 30.69C42.935 29.3821 42.8688 27.9899 42.3782 26.7228L48.382 22.2023C49.2884 21.5195 49.3002 20.3894 49.4061 19.0827C48.6998 17.7406 47.452 16.1985 46.263 14.2325C46.2865 14.1854 22.9306 29.4892 21.6474 30.3604Z" fill="#666666"/>
<path fill-rule="evenodd" clip-rule="evenodd" d="M24.3993 39.3547L14.8403 41.5678C14.5342 41.6362 14.2145 41.6057 13.9268 41.4809C13.6392 41.3562 13.3984 41.1434 13.2393 40.8733L5.5167 27.4883C5.45471 27.3805 5.41869 27.2598 5.4115 27.1356C5.4043 27.0114 5.42614 26.8874 5.47527 26.773C5.52439 26.6589 5.59946 26.5576 5.69452 26.4775C5.78958 26.3973 5.90202 26.3403 6.02291 26.3111L17.7951 23.6035L25.4941 36.9414C25.622 37.1661 25.695 37.4179 25.7068 37.6762C25.7187 37.9345 25.6692 38.1919 25.5623 38.4274C25.4556 38.6628 25.2944 38.8696 25.0923 39.0308C24.89 39.1921 24.6526 39.303 24.3993 39.3547Z" fill="#CCCCCC"/>
<path fill-rule="evenodd" clip-rule="evenodd" d="M7.40127 28.1243C7.55174 28.0429 7.72798 28.0232 7.89273 28.0694C8.0575 28.1154 8.19786 28.2238 8.28418 28.3716C8.40009 28.494 8.46468 28.6562 8.46468 28.8248C8.46468 28.9934 8.40009 29.1556 8.28418 29.278C8.13486 29.3558 7.96144 29.3736 7.79945 29.3276C7.63747 29.2817 7.4992 29.1755 7.41304 29.0308C7.29552 28.9099 7.22881 28.7485 7.22662 28.5799C7.22443 28.4113 7.28693 28.2483 7.40127 28.1243Z" fill="#666666"/>
<path fill-rule="evenodd" clip-rule="evenodd" d="M13.4082 38.6235C13.5575 38.5457 13.731 38.5279 13.893 38.5739C14.055 38.6198 14.1932 38.726 14.2793 38.8707C14.396 38.9951 14.461 39.1592 14.461 39.3298C14.461 39.5004 14.396 39.6645 14.2793 39.7889C14.1301 39.8667 13.9567 39.8845 13.7946 39.8386C13.6326 39.7926 13.4944 39.6864 13.4082 39.5417C13.2915 39.4173 13.2266 39.2532 13.2266 39.0826C13.2266 38.912 13.2915 38.7479 13.4082 38.6235Z" fill="#666666"/>
<path fill-rule="evenodd" clip-rule="evenodd" d="M22.9757 36.3989C23.125 36.3211 23.2985 36.3033 23.4605 36.3492C23.6225 36.3952 23.7607 36.5014 23.8468 36.6461C23.8843 36.7441 23.8937 36.8505 23.874 36.9535C23.8545 37.0565 23.8066 37.152 23.7358 37.2293C23.665 37.3066 23.5741 37.3627 23.4733 37.3913C23.3724 37.42 23.2655 37.42 23.1648 37.3913C23.0639 37.3627 22.973 37.3066 22.9021 37.2293C22.8314 37.152 22.7835 37.0565 22.7639 36.9535C22.7443 36.8505 22.7537 36.7441 22.7911 36.6461C22.8285 36.5482 22.8925 36.4626 22.9757 36.3989Z" fill="#666666"/>
<path fill-rule="evenodd" clip-rule="evenodd" d="M16.9371 25.899C17.0931 25.8351 17.2658 25.8244 17.4285 25.8687C17.5911 25.913 17.7346 26.0098 17.8365 26.144C17.9386 26.2782 17.9934 26.4423 17.9925 26.6109C17.9917 26.7794 17.9352 26.9431 17.8318 27.0762C17.6828 27.1586 17.5075 27.1802 17.3429 27.1362C17.1783 27.0923 17.0372 26.9865 16.9489 26.8408C16.8236 26.7168 16.7522 26.5485 16.7501 26.3722C16.7478 26.196 16.815 26.026 16.9371 25.899Z" fill="#666666"/>
<path fill-rule="evenodd" clip-rule="evenodd" d="M15.6308 30.8675C15.3129 32.1742 15.772 33.1513 17.2435 33.0101C17.9499 31.515 16.6667 30.2436 15.6308 30.8675Z" fill="white" stroke="white" stroke-width="0.258987" stroke-miterlimit="22.93"/>
<path d="M19.5641 37.3421C21.4527 35.6894 21.2135 32.3268 19.0299 29.8316C16.8462 27.3364 13.545 26.6533 11.6565 28.306C9.76793 29.9587 10.0072 33.3213 12.1908 35.8165C14.3745 38.3119 17.6757 38.9948 19.5641 37.3421Z" fill="#666666"/>
<path d="M14.4405 28.3818C15.7105 28.4253 16.9206 28.932 17.8427 29.8062C19.8675 31.6191 20.4679 34.4327 19.2906 36.1043C18.9992 36.4858 18.6203 36.7919 18.1861 36.9967C17.7518 37.2016 17.2748 37.2992 16.795 37.2815C15.5318 37.2331 14.3283 36.7318 13.4046 35.8689C11.3798 34.0559 10.7441 31.2424 11.9802 29.559C12.2742 29.1773 12.6552 28.8714 13.0912 28.6665C13.5274 28.4618 14.0061 28.3642 14.4876 28.3818H14.4405ZM14.4876 28.217C13.9754 28.1855 13.4632 28.2796 12.9954 28.4909C12.5277 28.7021 12.1186 29.0244 11.8036 29.4295C10.5204 31.1718 11.1679 34.1384 13.2515 35.9513C14.2105 36.8552 15.4661 37.3784 16.7832 37.4228C17.2886 37.4396 17.7906 37.335 18.2474 37.1179C18.7042 36.9008 19.1022 36.5774 19.4084 36.1749C20.7033 34.4327 20.0558 31.4661 17.9722 29.6532C17.0132 28.7493 15.7576 28.2261 14.4405 28.1816L14.4876 28.217Z" fill="#474747"/>
<path fill-rule="evenodd" clip-rule="evenodd" d="M11.933 29.5592C13.1808 27.8876 15.8178 28.0053 17.819 29.8064C19.8203 31.6076 20.4678 34.4329 19.2905 36.1045C18.1133 37.7762 15.4057 37.6702 13.4045 35.8691C11.4032 34.068 10.6969 31.2427 11.933 29.5592Z" fill="#666666"/>
<path d="M14.7474 29.5607C15.6843 29.5968 16.576 29.9735 17.2549 30.6202C18.7381 31.9387 19.209 34.0106 18.2908 35.2349C18.0797 35.5169 17.8036 35.7434 17.4857 35.8951C17.1679 36.0468 16.8181 36.1192 16.4661 36.1061C15.5307 36.0733 14.6393 35.7009 13.9586 35.0583C12.4754 33.7399 12.0045 31.668 12.9109 30.4319C13.1265 30.1521 13.4054 29.9271 13.7245 29.7757C14.0438 29.6243 14.3942 29.5506 14.7474 29.5607ZM14.7474 29.3959C14.3681 29.3829 13.9911 29.4616 13.6489 29.6256C13.3066 29.7896 13.009 30.034 12.7814 30.3377C11.8279 31.6326 12.2988 33.7987 13.8527 35.1878C14.563 35.855 15.4922 36.24 16.4661 36.2709C16.8465 36.2826 17.224 36.2021 17.5665 36.036C17.9088 35.8699 18.2058 35.6234 18.4321 35.3173C19.3856 34.0224 18.903 31.8445 17.3608 30.4672C16.6413 29.8209 15.7143 29.4535 14.7474 29.4312V29.3959Z" fill="#474747"/>
<path fill-rule="evenodd" clip-rule="evenodd" d="M12.9106 30.431C13.817 29.2538 15.7594 29.2538 17.2545 30.6193C18.7496 31.9849 19.2087 34.0097 18.2905 35.234C17.3722 36.4583 15.4416 36.4112 13.9583 35.0574C12.475 33.7036 12.0041 31.6671 12.9106 30.431Z" fill="#F7A720"/>
<path opacity="0.3" fill-rule="evenodd" clip-rule="evenodd" d="M14.5847 31.514C14.9621 31.3092 15.4046 31.2597 15.8181 31.3763C16.2314 31.4928 16.5829 31.7661 16.7979 32.1379C17.0928 32.445 17.2576 32.8542 17.2576 33.2798C17.2576 33.7055 17.0928 34.1148 16.7979 34.4217C16.4203 34.6266 15.9778 34.676 15.5645 34.5595C15.1511 34.4431 14.7995 34.1697 14.5847 33.7978C14.2897 33.4909 14.125 33.0816 14.125 32.6559C14.125 32.2302 14.2897 31.821 14.5847 31.514Z" fill="black"/>
<path fill-rule="evenodd" clip-rule="evenodd" d="M16.5398 32.067C16.6958 32.003 16.8685 31.9923 17.0312 32.0367C17.1939 32.081 17.3373 32.1777 17.4393 32.3119C17.5413 32.4461 17.5961 32.6102 17.5953 32.7788C17.5944 32.9474 17.5379 33.111 17.4345 33.2442C17.2858 33.3249 17.1114 33.3444 16.9485 33.2982C16.7857 33.2519 16.6475 33.1439 16.5634 32.997C16.4373 32.8765 16.3641 32.7111 16.3596 32.5368C16.3552 32.3626 16.42 32.1935 16.5398 32.067Z" fill="white"/>
<path opacity="0.29" fill-rule="evenodd" clip-rule="evenodd" d="M24.2264 36.1061C24.5372 36.4799 24.9768 36.7235 25.4585 36.7888C25.9402 36.8542 26.4289 36.7366 26.8281 36.4593L49.3364 20.1078C49.4734 19.0804 49.4054 18.0361 49.1363 17.0352L46.6406 8.59462C46.3482 7.87532 46.0181 7.17193 45.6517 6.48741C44.4745 5.7693 43.2267 5.93411 40.4602 6.55804C38.2316 6.9371 36.0652 7.61832 34.0208 8.58285L4.2961 24.6047C3.55454 24.8953 2.88116 25.3361 2.31838 25.8997C2.04725 26.309 1.89634 26.7862 1.88281 27.277C5.54395 26.4294 9.67598 25.3111 11.6419 24.8637C12.3099 24.6441 13.0223 24.5956 13.7139 24.7225C14.5093 25.0095 15.1934 25.5411 15.668 26.2411C16.3037 26.9945 22.8255 34.4109 24.2264 36.1061Z" fill="black"/>
<path fill-rule="evenodd" clip-rule="evenodd" d="M15.3125 22.1895L19.7506 26.7806L47.474 7.35654L46.3557 4.9668L15.3125 22.1895Z" fill="#666666"/>
<path fill-rule="evenodd" clip-rule="evenodd" d="M24.9318 34.5866C25.2426 34.9603 25.6822 35.204 26.1639 35.2693C26.6456 35.3346 27.1343 35.2172 27.5335 34.9398L50.5363 18.2234C50.9571 17.9189 51.2591 17.4776 51.3901 16.9749C51.5211 16.4724 51.4731 15.9398 51.2544 15.4687L47.3342 7.06332C46.2747 7.67547 21.2707 23.9917 21.2707 23.9917C19.5284 25.1689 18.5513 24.3684 17.1504 23.203L46.3689 4.96787C45.1917 4.24977 43.9439 4.41458 41.1774 5.03851C38.9448 5.41653 36.7744 6.09778 34.7263 7.06332L2.94141 25.4044L12.0884 23.2854C12.8564 23.0752 13.6635 23.051 14.4428 23.2147C15.2279 23.5029 15.9032 24.0299 16.3735 24.7216C17.0092 25.475 23.4721 32.8915 24.9318 34.5866Z" fill="#CCCCCC"/>
<path fill-rule="evenodd" clip-rule="evenodd" d="M35.9141 31.5612C36.597 31.9747 37.1324 32.5925 37.4444 33.327C37.7387 33.951 37.88 34.5043 38.1155 35.0811C38.6099 36.3289 39.9166 37.5768 40.9055 37.2472C41.2704 37.1295 41.5882 36.741 41.8001 35.9405C42.636 32.7502 44.496 27.7 42.4005 26.6758L35.9141 31.5612Z" fill="#F7A720"/>
<path fill-rule="evenodd" clip-rule="evenodd" d="M43.1657 34.1398C44.2252 30.8672 39.8578 29.6193 39.0337 32.6919C38.2097 35.7644 42.1769 37.1771 43.1657 34.1398Z" fill="#666666"/>
<path fill-rule="evenodd" clip-rule="evenodd" d="M43.2015 34.1395C44.0491 31.0316 40.5763 29.8544 39.9406 32.7621C39.3049 35.6699 42.4127 37.0237 43.2015 34.1395Z" fill="#F7A720"/>
<path fill-rule="evenodd" clip-rule="evenodd" d="M34.4194 47.4068H35.8909C35.8909 48.8312 34.4312 48.7723 34.4194 47.4068ZM33.4776 46.8652C33.3834 50.7854 39.5874 50.3969 39.3637 46.8652H33.4776Z" fill="#474747"/>
<path fill-rule="evenodd" clip-rule="evenodd" d="M35.8934 47.418H34.4219C34.4336 48.7835 35.9169 48.8424 35.8934 47.418Z" fill="#CCCCCC"/>
<path d="M53.362 39.8359H40.7305V46.8639H53.362V39.8359Z" fill="#474747"/>
<path fill-rule="evenodd" clip-rule="evenodd" d="M40.7273 39.8359V46.8639H35.7594V41.1426H33.8759V46.8639H31.957V39.8359H40.7273Z" fill="#666666"/>
<path fill-rule="evenodd" clip-rule="evenodd" d="M30.6289 37.623V39.8362H33.6426V38.3765H36.103V39.8362H42.0597V37.623H30.6289Z" fill="#CCCCCC"/>
<path opacity="0.2" fill-rule="evenodd" clip-rule="evenodd" d="M42.9792 27.182L31.207 36.07V35.1046L42.4023 26.6758C42.638 26.7875 42.8378 26.9629 42.9792 27.182Z" fill="black"/>
</svg>
