<svg width="55" height="55" viewBox="0 0 55 55" fill="none" xmlns="http://www.w3.org/2000/svg">
<path fill-rule="evenodd" clip-rule="evenodd" d="M35.4932 30.6431L50.4792 45.6526L47.8069 48.3366L43.4748 47.595L41.3087 43.5572L36.7882 42.6625L34.7751 38.8954L30.4077 38.2008L28.583 34.8104L23.6505 33.6685L21.7669 29.7249L17.5172 29.1245L15.5865 25.1926L10.2891 23.7328L19.4243 14.5977L30.7962 25.9342L35.4932 30.6431Z" fill="#CCCCCC"/>
<path opacity="0.34" fill-rule="evenodd" clip-rule="evenodd" d="M10.5597 23.8021L11.6545 24.1082L20.2952 15.4675L18.859 14.0312L9.46484 23.4254L10.5597 23.8021Z" fill="black"/>
<path d="M19.2676 11.9728L13.77 6.47522C13.3509 6.05827 12.7837 5.82422 12.1925 5.82422C11.6013 5.82422 11.0342 6.05827 10.615 6.47522L2.18617 14.9041C1.76922 15.3233 1.53516 15.8903 1.53516 16.4815C1.53516 17.0727 1.76922 17.6399 2.18617 18.059L7.68376 23.5448C7.89274 23.7552 8.14126 23.9221 8.41503 24.0361C8.68879 24.15 8.98237 24.2086 9.27889 24.2086C9.57541 24.2086 9.86899 24.15 10.1428 24.0361C10.4165 23.9221 10.665 23.7552 10.874 23.5448L19.3029 15.116C19.7088 14.6913 19.9323 14.1246 19.9257 13.5372C19.9191 12.9498 19.6829 12.3882 19.2676 11.9728ZM14.8412 14.2448L9.95579 19.1303C9.78518 19.3015 9.58245 19.4374 9.35921 19.53C9.13599 19.6227 8.89667 19.6705 8.65497 19.6705C8.41326 19.6705 8.17393 19.6227 7.95071 19.53C7.72748 19.4374 7.52476 19.3015 7.35414 19.1303L6.6125 18.3886C6.44128 18.218 6.30544 18.0153 6.21275 17.7921C6.12007 17.5688 6.07236 17.3295 6.07236 17.0878C6.07236 16.8461 6.12007 16.6068 6.21275 16.3836C6.30544 16.1604 6.44128 15.9577 6.6125 15.787L11.4979 10.9016C11.6686 10.7303 11.8713 10.5945 12.0946 10.5018C12.3178 10.4091 12.5571 10.3614 12.7988 10.3614C13.0404 10.3614 13.2798 10.4091 13.503 10.5018C13.7263 10.5945 13.929 10.7303 14.0996 10.9016L14.8412 11.6432C15.0124 11.8139 15.1482 12.0166 15.241 12.2398C15.3337 12.463 15.3813 12.7023 15.3813 12.944C15.3813 13.1857 15.3337 13.425 15.241 13.6483C15.1482 13.8715 15.0124 14.0742 14.8412 14.2448Z" fill="#F7A720"/>
<path d="M15.4688 11.1121L14.633 10.2763C14.1498 9.79538 13.4959 9.52539 12.8142 9.52539C12.1324 9.52539 11.4785 9.79538 10.9954 10.2763L5.9922 15.303C5.75088 15.5417 5.55929 15.8259 5.42855 16.139C5.29779 16.4523 5.23047 16.7883 5.23047 17.1277C5.23047 17.4672 5.29779 17.8031 5.42855 18.1164C5.55929 18.4295 5.75088 18.7137 5.9922 18.9523L6.82802 19.7882C7.31116 20.2692 7.96512 20.5391 8.64682 20.5391C9.32852 20.5391 9.98247 20.2692 10.4656 19.7882L15.4688 14.7732C15.7133 14.5352 15.9078 14.2507 16.0404 13.9362C16.1731 13.6218 16.2415 13.2839 16.2415 12.9427C16.2415 12.6014 16.1731 12.2636 16.0404 11.9492C15.9078 11.6348 15.7133 11.3502 15.4688 11.1121ZM14.8449 14.2435L9.95941 19.1289C9.7888 19.3002 9.58607 19.4361 9.36284 19.5287C9.13961 19.6214 8.9003 19.6691 8.65859 19.6691C8.41688 19.6691 8.17756 19.6214 7.95433 19.5287C7.73111 19.4361 7.52838 19.3002 7.35777 19.1289L6.61612 18.3873C6.44491 18.2167 6.30907 18.014 6.21637 17.7908C6.12369 17.5676 6.07598 17.3283 6.07598 17.0865C6.07598 16.8448 6.12369 16.6054 6.21637 16.3822C6.30907 16.159 6.44491 15.9563 6.61612 15.7856L11.5016 10.9002C11.6722 10.729 11.8749 10.5932 12.0982 10.5005C12.3214 10.4078 12.5607 10.3601 12.8024 10.3601C13.0441 10.3601 13.2834 10.4078 13.5066 10.5005C13.7299 10.5932 13.9326 10.729 14.1032 10.9002L14.8449 11.6419C15.016 11.8125 15.1519 12.0152 15.2446 12.2384C15.3373 12.4616 15.385 12.701 15.385 12.9427C15.385 13.1845 15.3373 13.4238 15.2446 13.647C15.1519 13.8702 15.016 14.0729 14.8449 14.2435Z" fill="#666666"/>
<path fill-rule="evenodd" clip-rule="evenodd" d="M38.34 18.541C38.5485 19.4213 38.9844 20.2315 39.6042 20.8905C40.2239 21.5495 41.0058 22.0343 41.8716 22.2963L16.432 47.7477C15.6668 48.5247 13.9599 48.1127 13.1947 47.3475C12.4295 46.5823 12.0175 44.8635 12.7826 44.0984L38.34 18.541Z" fill="#F7A720"/>
<path opacity="0.2" fill-rule="evenodd" clip-rule="evenodd" d="M38.34 18.541C38.5485 19.4213 38.9844 20.2315 39.6042 20.8905C40.2239 21.5495 41.0058 22.0343 41.8716 22.2963L16.432 47.7477C15.6668 48.5247 13.9599 48.1127 13.1947 47.3475C12.4295 46.5823 12.0175 44.8635 12.7826 44.0984L38.34 18.541Z" fill="black"/>
<path fill-rule="evenodd" clip-rule="evenodd" d="M38.3417 18.541C38.4334 19.3007 38.7646 20.0115 39.2874 20.5703C39.8102 21.129 40.4974 21.5069 41.2494 21.6489L15.7862 47.0885C15.3675 47.4201 14.8454 47.5936 14.3114 47.5786C13.7775 47.5635 13.266 47.3608 12.8667 47.0061C12.5142 46.6057 12.3129 46.0946 12.2978 45.5613C12.2827 45.028 12.4548 44.5063 12.7843 44.0866L38.3417 18.541Z" fill="#F7A720"/>
<path fill-rule="evenodd" clip-rule="evenodd" d="M40.1043 10.4531L42.2822 12.6427C43.0742 12.5097 43.8866 12.5679 44.6515 12.8125C45.4165 13.057 46.1119 13.4809 46.6798 14.0488C47.2476 14.6167 47.6716 15.3122 47.9162 16.0772C48.1607 16.8421 48.219 17.6544 48.0858 18.4464L48.7568 19.1057C50.4403 21.4601 52.0413 22.8845 53.1832 27.9936C50.1537 26.768 47.2965 25.1535 44.6837 23.1906L44.0715 22.5784C43.266 22.7278 42.4361 22.6789 41.6536 22.4359C40.8711 22.1929 40.1595 21.7632 39.5801 21.1838C39.0008 20.6045 38.571 19.8929 38.328 19.1104C38.0851 18.3279 38.0362 17.4981 38.1854 16.6924L36.0547 14.5616L40.1043 10.4531Z" fill="#666666"/>
<path opacity="0.34" fill-rule="evenodd" clip-rule="evenodd" d="M40.4612 10.8072C40.4612 10.8072 40.6142 11.1133 38.613 13.1616C36.6117 15.2099 36.3763 14.9274 36.3763 14.9274C36.3763 14.9274 35.8583 14.5154 35.9054 14.1505C35.9525 13.7855 36.6823 13.091 37.6241 12.1492C38.5659 11.2074 39.1309 10.5011 39.5901 10.3951C40.0492 10.2892 40.4612 10.8072 40.4612 10.8072Z" fill="black"/>
<path d="M37.3971 6.08723L31.5619 11.9225C31.4377 12.0466 31.4377 12.2479 31.5619 12.3719L34.7666 15.5768C34.8908 15.7009 35.092 15.7009 35.2162 15.5768L41.0514 9.74155C41.1755 9.61741 41.1755 9.41616 41.0514 9.29204L37.8466 6.08723C37.7225 5.96311 37.5212 5.96311 37.3971 6.08723Z" fill="#B3B3B3"/>
</svg>
