<svg width="55" height="55" viewBox="0 0 55 55" fill="none" xmlns="http://www.w3.org/2000/svg">
<path fill-rule="evenodd" clip-rule="evenodd" d="M48.9003 27.8301C49.4771 28.9249 50.0775 29.3722 50.0775 30.0432C50.0538 30.3388 49.9194 30.6147 49.7011 30.8155C49.4829 31.0162 49.1969 31.1272 48.9003 31.1263C48.7496 31.1432 48.597 31.1276 48.4529 31.0805C48.3089 31.0333 48.1764 30.9558 48.0648 30.8532C47.9532 30.7505 47.865 30.625 47.8061 30.4853C47.7471 30.3456 47.7188 30.1949 47.7231 30.0432C47.7819 29.4311 48.3117 28.9131 48.9003 27.8301Z" fill="#6699FF"/>
<path fill-rule="evenodd" clip-rule="evenodd" d="M48.9138 24.5098C49.3259 25.2867 49.7614 25.6046 49.7614 26.0872C49.757 26.1935 49.7313 26.2977 49.6861 26.3939C49.6409 26.4901 49.577 26.5764 49.4981 26.6476C49.4192 26.7188 49.3269 26.7737 49.2266 26.8087C49.1262 26.8439 49.0199 26.8588 48.9138 26.8524C48.811 26.8574 48.7082 26.841 48.6119 26.8046C48.5156 26.7681 48.4278 26.7123 48.3538 26.6406C48.2799 26.5689 48.2215 26.4829 48.1821 26.3877C48.1428 26.2925 48.1233 26.1902 48.1251 26.0872C48.1251 25.6163 48.5018 25.2867 48.9138 24.5098Z" fill="#6699FF"/>
<path fill-rule="evenodd" clip-rule="evenodd" d="M15.082 25.4636L44.1475 18.9065L53.212 18.8594V21.7906L51.6581 21.8024V23.5682H45.9957V21.8024L44.1475 21.7906L15.082 32.3738V25.4636Z" fill="#666666"/>
<path opacity="0.2" fill-rule="evenodd" clip-rule="evenodd" d="M15.082 25.4636L44.1475 18.9065L53.212 18.8594V21.7906L51.6581 21.8024V23.5682H45.9957V21.8024L44.1475 21.7906L15.082 32.3738V25.4636Z" fill="black"/>
<path fill-rule="evenodd" clip-rule="evenodd" d="M2.64844 14.3965H26.4164V16.1034L15.1269 18.4579V20.1766H2.64844V14.3965Z" fill="#666666"/>
<path opacity="0.2" fill-rule="evenodd" clip-rule="evenodd" d="M10.5586 14.3965H26.4157V16.1034L15.1262 18.4579V20.1766H10.5586" fill="black"/>
<path fill-rule="evenodd" clip-rule="evenodd" d="M10.5593 20.1766H2.64844V14.3965H10.5593" fill="#666666"/>
<path fill-rule="evenodd" clip-rule="evenodd" d="M16.1522 28.913V39.7552H1.55469V20.0957H16.1522V28.913Z" fill="#F7A720"/>
<path opacity="0.2" fill-rule="evenodd" clip-rule="evenodd" d="M16.1522 28.913V39.7552H1.55469V20.0957H16.1522V28.913Z" fill="black"/>
<path d="M10.5604 20.0957H1.55469V39.7552H10.5604V20.0957Z" fill="#F7A720"/>
<path d="M3.51974 22.3672H2.61328V35.8463H3.51974V22.3672Z" fill="white"/>
</svg>
