<svg width="55" height="55" viewBox="0 0 55 55" fill="none" xmlns="http://www.w3.org/2000/svg">
<path fill-rule="evenodd" clip-rule="evenodd" d="M52.9035 21.9199H25.0859V49.7375H52.9035V21.9199Z" fill="#CCCCCC"/>
<path fill-rule="evenodd" clip-rule="evenodd" d="M38.9917 23.6622C39.3088 23.6622 39.6188 23.7563 39.8824 23.9328C40.1459 24.1093 40.3511 24.36 40.4719 24.6532C40.5927 24.9465 40.6238 25.2691 40.561 25.5798C40.4983 25.8907 40.3447 26.176 40.1196 26.3994C39.8945 26.6228 39.6081 26.7744 39.2967 26.8349C38.9854 26.8953 38.6631 26.8619 38.3708 26.7389C38.0784 26.6159 37.8292 26.4089 37.6547 26.1441C37.4803 25.8792 37.3883 25.5685 37.3907 25.2514C37.3907 25.0417 37.4321 24.8341 37.5127 24.6405C37.5934 24.4469 37.7115 24.2712 37.8603 24.1235C38.0091 23.9758 38.1858 23.8589 38.3799 23.7798C38.574 23.7005 38.782 23.6606 38.9917 23.6622Z" fill="#666666"/>
<path fill-rule="evenodd" clip-rule="evenodd" d="M38.9901 24.002C39.2402 23.9998 39.4853 24.0719 39.6943 24.2094C39.9033 24.3469 40.0665 24.5435 40.1633 24.7741C40.2601 25.0048 40.286 25.259 40.2378 25.5045C40.1896 25.7499 40.0694 25.9755 39.8925 26.1523C39.7156 26.3291 39.4901 26.4493 39.2447 26.4976C38.9993 26.5458 38.745 26.5199 38.5144 26.4231C38.2838 26.3263 38.0872 26.163 37.9497 25.9541C37.8122 25.7451 37.7399 25.5 37.7422 25.2499C37.7422 25.086 37.7745 24.9238 37.8372 24.7724C37.9 24.621 37.9918 24.4834 38.1078 24.3675C38.2236 24.2517 38.3612 24.1598 38.5126 24.097C38.664 24.0344 38.8262 24.002 38.9901 24.002Z" fill="#F7A720"/>
<path fill-rule="evenodd" clip-rule="evenodd" d="M38.9882 29.3594C36.7974 29.3591 34.6856 30.1777 33.0674 31.6544C31.4491 33.1311 30.4412 35.1593 30.2415 37.3409H28.9937C28.9082 37.3409 28.8262 37.374 28.7647 37.4333C28.7031 37.4926 28.6671 37.5734 28.6641 37.6587V39.3775C28.667 39.464 28.7027 39.5462 28.7639 39.6074C28.825 39.6685 28.9072 39.7042 28.9937 39.7071H30.3475C30.6452 41.3504 31.4053 42.8746 32.5385 44.1012C33.6718 45.3277 35.1313 46.2058 36.746 46.6323C38.3605 47.0587 40.0633 47.0161 41.6545 46.5092C43.2456 46.0023 44.6594 45.0521 45.7297 43.7704C46.8001 42.4885 47.4828 40.9281 47.6978 39.272C47.9127 37.6159 47.6511 35.9329 46.9435 34.4202C46.2359 32.9076 45.1116 31.6281 43.7026 30.7318C42.2936 29.8353 40.6582 29.3593 38.9882 29.3594Z" fill="#F7A720"/>
<path opacity="0.2" fill-rule="evenodd" clip-rule="evenodd" d="M38.9882 29.3594C36.7974 29.3591 34.6856 30.1777 33.0674 31.6544C31.4491 33.1311 30.4412 35.1593 30.2415 37.3409H28.9937C28.9082 37.3409 28.8262 37.374 28.7647 37.4333C28.7031 37.4926 28.6671 37.5734 28.6641 37.6587V39.3775C28.667 39.464 28.7027 39.5462 28.7639 39.6074C28.825 39.6685 28.9072 39.7042 28.9937 39.7071H30.3475C30.6452 41.3504 31.4053 42.8746 32.5385 44.1012C33.6718 45.3277 35.1313 46.2058 36.746 46.6323C38.3605 47.0587 40.0633 47.0161 41.6545 46.5092C43.2456 46.0023 44.6594 45.0521 45.7297 43.7704C46.8001 42.4885 47.4828 40.9281 47.6978 39.272C47.9127 37.6159 47.6511 35.9329 46.9435 34.4202C46.2359 32.9076 45.1116 31.6281 43.7026 30.7318C42.2936 29.8353 40.6582 29.3593 38.9882 29.3594Z" fill="black"/>
<path fill-rule="evenodd" clip-rule="evenodd" d="M38.847 29.3594C36.696 29.3563 34.6215 30.1578 33.0313 31.6063C31.4411 33.0549 30.4501 35.0459 30.2533 37.1879H28.9819C28.8966 37.1909 28.8157 37.2271 28.7564 37.2885C28.6971 37.35 28.6641 37.4321 28.6641 37.5175V39.2009C28.6641 39.2853 28.6975 39.3661 28.7572 39.4257C28.8167 39.4853 28.8976 39.5188 28.9819 39.5188H30.3122C30.6029 41.1322 31.3473 42.6293 32.4581 43.835C33.5688 45.0407 35.0001 45.905 36.5842 46.3268C38.1685 46.7486 39.8401 46.7104 41.4033 46.2166C42.9665 45.7229 44.3568 44.794 45.4112 43.5388C46.4658 42.2836 47.1409 40.7539 47.3577 39.129C47.5743 37.5039 47.3236 35.8509 46.6348 34.3631C45.9462 32.8755 44.8479 31.6148 43.4687 30.7286C42.0895 29.8425 40.4864 29.3675 38.847 29.3594Z" fill="#F7A720"/>
<path fill-rule="evenodd" clip-rule="evenodd" d="M38.7534 31.0547C37.0786 31.0525 35.4616 31.6668 34.211 32.7807C32.9603 33.8946 32.1635 35.4299 31.9727 37.0938H33.0675C33.1518 37.0938 33.2325 37.1274 33.2922 37.1869C33.3518 37.2465 33.3853 37.3274 33.3853 37.4117V39.0951C33.3853 39.1369 33.3771 39.1782 33.3611 39.2167C33.3451 39.2553 33.3216 39.2904 33.2922 39.3198C33.2626 39.3494 33.2276 39.3728 33.1891 39.3888C33.1505 39.4047 33.1091 39.4129 33.0675 39.4129H32.0904C32.3782 40.6647 33.0133 41.8097 33.9227 42.7168C34.832 43.6238 35.9788 44.256 37.2313 44.5406C38.4837 44.8253 39.791 44.7509 41.0031 44.326C42.2151 43.9012 43.2829 43.143 44.0835 42.1386C44.8841 41.1344 45.3851 39.9247 45.5292 38.6483C45.6733 37.3721 45.4545 36.0811 44.8978 34.9235C44.3412 33.7661 43.4693 32.789 42.3825 32.1047C41.2956 31.4203 40.0378 31.0563 38.7534 31.0547Z" fill="#666666"/>
<path fill-rule="evenodd" clip-rule="evenodd" d="M43.5577 39.695C43.8449 39.2973 44.0402 38.8406 44.1298 38.3582C44.2194 37.8758 44.2009 37.3795 44.0757 36.905C43.8097 35.8029 43.4145 34.736 42.8984 33.7266C43.6327 34.5405 44.1721 35.5106 44.4759 36.5637C44.7991 37.7476 44.6601 39.01 44.0874 40.0953C43.8991 40.4956 43.2398 40.0953 43.6165 39.7068L43.5577 39.695Z" fill="white"/>
<path fill-rule="evenodd" clip-rule="evenodd" d="M29.3135 37.4825H32.7509C32.8033 37.4823 32.8539 37.5014 32.893 37.5361C32.9322 37.5709 32.9571 37.619 32.9628 37.6709V38.8481C32.9629 38.9024 32.9422 38.9545 32.905 38.994C32.8678 39.0334 32.8169 39.0571 32.7627 39.06H29.3135C29.2573 39.06 29.2034 39.0377 29.1636 38.998C29.1239 38.9583 29.1016 38.9044 29.1016 38.8481V37.6709C29.1016 37.6147 29.1239 37.5608 29.1636 37.5211C29.2034 37.4814 29.2573 37.459 29.3135 37.459V37.4825Z" fill="#666666"/>
<path opacity="0.25" fill-rule="evenodd" clip-rule="evenodd" d="M29.3135 37.4825H32.7509C32.8033 37.4823 32.8539 37.5014 32.893 37.5361C32.9322 37.5709 32.9571 37.619 32.9628 37.6709V38.8481C32.9629 38.9024 32.9422 38.9545 32.905 38.994C32.8678 39.0334 32.8169 39.0571 32.7627 39.06H29.3135C29.2573 39.06 29.2034 39.0377 29.1636 38.998C29.1239 38.9583 29.1016 38.9044 29.1016 38.8481V37.6709C29.1016 37.6147 29.1239 37.5608 29.1636 37.5211C29.2034 37.4814 29.2573 37.459 29.3135 37.459V37.4825Z" fill="black"/>
<path fill-rule="evenodd" clip-rule="evenodd" d="M29.7239 37.4825H32.3491C32.374 37.4855 32.398 37.4934 32.4198 37.5056C32.4415 37.5178 32.4606 37.5343 32.4759 37.554C32.4913 37.5738 32.5025 37.5964 32.5091 37.6204C32.5156 37.6445 32.5172 37.6697 32.5139 37.6944V38.8481C32.5172 38.8729 32.5156 38.8981 32.5091 38.9223C32.5025 38.9463 32.4913 38.9689 32.4759 38.9887C32.4606 39.0083 32.4415 39.0248 32.4198 39.037C32.398 39.0493 32.374 39.0572 32.3491 39.06H29.7239C29.6751 39.0514 29.6313 39.025 29.6008 38.9858C29.5703 38.9466 29.5555 38.8977 29.5591 38.8481V37.6709C29.5555 37.6214 29.5703 37.5723 29.6008 37.5333C29.6313 37.4941 29.6751 37.4677 29.7239 37.459V37.4825Z" fill="#666666"/>
<path d="M24.0125 17.8711H2.32812V19.531H24.0125V17.8711Z" fill="#666666"/>
<path fill-rule="evenodd" clip-rule="evenodd" d="M1.29709 4.42583L25.1122 4.41406V18.3876H1.25L1.29709 4.42583Z" fill="#CCCCCC"/>
<path fill-rule="evenodd" clip-rule="evenodd" d="M25.0887 19.0234H1.25V49.737H25.1122L25.0887 19.0234Z" fill="#F7A720"/>
<path opacity="0.1" d="M24.0125 18.3887H2.32812V19.0244H24.0125V18.3887Z" fill="black"/>
<path opacity="0.1" fill-rule="evenodd" clip-rule="evenodd" d="M1.29709 4.42583L25.1122 4.41406V18.3876H1.25L1.29709 4.42583Z" fill="black"/>
<path opacity="0.1" fill-rule="evenodd" clip-rule="evenodd" d="M25.0887 19.0234H1.25V49.737H25.1122L25.0887 19.0234Z" fill="black"/>
<path d="M16.3387 17.8711H1.94141V19.531H16.3387V17.8711Z" fill="#666666"/>
<path fill-rule="evenodd" clip-rule="evenodd" d="M1.28532 4.42583L25.1122 4.41406V7.01571L20.2621 18.3876H1.25L1.28532 4.42583Z" fill="#CCCCCC"/>
<path fill-rule="evenodd" clip-rule="evenodd" d="M1.25 19.0234V49.737H6.97127L20.1208 19.0234H1.25Z" fill="#F7A720"/>
<path fill-rule="evenodd" clip-rule="evenodd" d="M3.95312 9.87695V16.7872H4.98907V9.87695H3.95312Z" fill="#666666"/>
<path fill-rule="evenodd" clip-rule="evenodd" d="M3.95312 20.6484H4.98907V32.6913H3.95312V20.6484Z" fill="#666666"/>
<path d="M44.5571 11.3008H44.0156V21.9311H44.5571V11.3008Z" fill="#666666"/>
<path fill-rule="evenodd" clip-rule="evenodd" d="M44.332 21.9193H49.1939V11.3008H44.332V21.9193Z" fill="#F7A720"/>
<path fill-rule="evenodd" clip-rule="evenodd" d="M44.1792 11.3008H28.793V21.8957H44.1792V11.3008Z" fill="#B3B3B3"/>
<path fill-rule="evenodd" clip-rule="evenodd" d="M43.3668 21.1066L29.6641 21.0948V13.1133H43.3668V21.1066Z" fill="#666666"/>
<path fill-rule="evenodd" clip-rule="evenodd" d="M40.7181 12.5143H32.3128C32.305 12.5143 32.2973 12.5127 32.2903 12.5098C32.2831 12.5067 32.2766 12.5025 32.2711 12.497C32.2657 12.4915 32.2613 12.4851 32.2584 12.4779C32.2554 12.4707 32.2539 12.4631 32.2539 12.4554V11.9021C32.2631 11.8979 32.2732 11.8956 32.2833 11.8956C32.2935 11.8956 32.3036 11.8979 32.3128 11.9021H40.7181C40.7288 11.8959 40.741 11.8926 40.7534 11.8926C40.7658 11.8926 40.778 11.8959 40.7887 11.9021V12.4554C40.7859 12.472 40.7773 12.4871 40.7643 12.4979C40.7513 12.5086 40.7349 12.5145 40.7181 12.5143Z" fill="#666666"/>
<path fill-rule="evenodd" clip-rule="evenodd" d="M45.2269 20.5312H46.4041C46.4259 20.5312 46.4468 20.54 46.4624 20.5554C46.4778 20.5709 46.4865 20.5919 46.4865 20.6137C46.4836 20.6334 46.4737 20.6516 46.4585 20.6645C46.4434 20.6775 46.424 20.6845 46.4041 20.6843H45.2269C45.208 20.6843 45.1902 20.6769 45.1768 20.6637C45.1637 20.6504 45.1563 20.6325 45.1563 20.6137C45.1563 20.6137 45.1562 20.5312 45.2269 20.5312Z" fill="#666666"/>
<path fill-rule="evenodd" clip-rule="evenodd" d="M47.0863 20.5312H48.2635C48.2854 20.5312 48.3063 20.54 48.3217 20.5554C48.3373 20.5709 48.3459 20.5919 48.3459 20.6137C48.3431 20.6334 48.3332 20.6516 48.318 20.6645C48.3028 20.6775 48.2835 20.6845 48.2635 20.6843H47.0863C47.0675 20.6843 47.0496 20.6769 47.0363 20.6637C47.0232 20.6504 47.0156 20.6325 47.0156 20.6137C47.0155 20.5938 47.0226 20.5743 47.0355 20.5593C47.0485 20.5441 47.0666 20.5342 47.0863 20.5312Z" fill="#666666"/>
<path fill-rule="evenodd" clip-rule="evenodd" d="M47.2909 17.8942C47.4036 18.0229 47.4656 18.1881 47.4656 18.3592C47.4656 18.5301 47.4036 18.6954 47.2909 18.8242L46.8553 18.2827L46.7376 18.3768L47.1732 18.9184C47.0284 19.011 46.8543 19.0467 46.6846 19.0184C46.515 18.9901 46.362 18.8999 46.255 18.7653C46.1977 18.6941 46.1551 18.6125 46.1295 18.5249C46.1039 18.4372 46.0958 18.3455 46.1056 18.2548C46.1155 18.164 46.143 18.0762 46.1868 17.9961C46.2307 17.9161 46.2898 17.8453 46.3609 17.7882C46.432 17.731 46.5137 17.6883 46.6013 17.6627C46.6889 17.6371 46.7807 17.629 46.8713 17.6388C46.9621 17.6486 47.0501 17.6763 47.1301 17.7201C47.2102 17.7639 47.2808 17.823 47.338 17.8942H47.2909Z" fill="#666666"/>
<path fill-rule="evenodd" clip-rule="evenodd" d="M45.2308 16.127H46.4081C46.43 16.127 46.4509 16.1355 46.4663 16.1511C46.4818 16.1665 46.4905 16.1875 46.4905 16.2094C46.4876 16.229 46.4776 16.2471 46.4626 16.2601C46.4474 16.273 46.4281 16.2801 46.4081 16.28H45.2308C45.2108 16.2801 45.1915 16.273 45.1763 16.2601C45.1613 16.2471 45.1513 16.229 45.1484 16.2094C45.1484 16.1875 45.1571 16.1665 45.1726 16.1511C45.188 16.1355 45.2089 16.127 45.2308 16.127Z" fill="#666666"/>
<path fill-rule="evenodd" clip-rule="evenodd" d="M45.2308 15.3027H46.4081C46.43 15.3027 46.4509 15.3114 46.4663 15.3269C46.4818 15.3423 46.4905 15.3632 46.4905 15.3851C46.4876 15.4049 46.4776 15.4229 46.4626 15.436C46.4474 15.4489 46.4281 15.456 46.4081 15.4558H45.2308C45.2108 15.456 45.1915 15.4489 45.1763 15.436C45.1613 15.4229 45.1513 15.4049 45.1484 15.3851C45.1484 15.3632 45.1571 15.3423 45.1726 15.3269C45.188 15.3114 45.2089 15.3027 45.2308 15.3027Z" fill="#666666"/>
<path fill-rule="evenodd" clip-rule="evenodd" d="M45.2308 14.5273H46.4081C46.4281 14.5271 46.4474 14.5342 46.4626 14.5471C46.4776 14.5602 46.4876 14.5782 46.4905 14.598C46.4905 14.6198 46.4818 14.6407 46.4663 14.6563C46.4509 14.6717 46.43 14.6804 46.4081 14.6804H45.2308C45.2089 14.6804 45.188 14.6717 45.1726 14.6563C45.1571 14.6407 45.1484 14.6198 45.1484 14.598C45.1513 14.5782 45.1613 14.5602 45.1763 14.5471C45.1915 14.5342 45.2108 14.5271 45.2308 14.5273Z" fill="#666666"/>
<path fill-rule="evenodd" clip-rule="evenodd" d="M47.0863 16.127H48.2635C48.2854 16.127 48.3063 16.1355 48.3217 16.1511C48.3373 16.1665 48.3459 16.1875 48.3459 16.2094C48.3431 16.229 48.3332 16.2471 48.318 16.2601C48.3028 16.273 48.2835 16.2801 48.2635 16.28H47.0863C47.0675 16.28 47.0496 16.2725 47.0363 16.2593C47.0232 16.246 47.0156 16.2281 47.0156 16.2094C47.0156 16.2094 47.0156 16.127 47.0863 16.127Z" fill="#666666"/>
<path fill-rule="evenodd" clip-rule="evenodd" d="M47.0863 15.3027H48.2635C48.2854 15.3027 48.3063 15.3114 48.3217 15.3269C48.3373 15.3423 48.3459 15.3632 48.3459 15.3851C48.3431 15.4049 48.3332 15.4229 48.318 15.436C48.3028 15.4489 48.2835 15.456 48.2635 15.4558H47.0863C47.0771 15.4558 47.0679 15.4539 47.0593 15.4504C47.0507 15.4468 47.0429 15.4416 47.0363 15.4351C47.0298 15.4286 47.0246 15.4207 47.021 15.4122C47.0175 15.4036 47.0156 15.3944 47.0156 15.3851C47.0156 15.3851 47.0156 15.3027 47.0863 15.3027Z" fill="#666666"/>
<path fill-rule="evenodd" clip-rule="evenodd" d="M47.0863 14.5273H48.2635C48.2835 14.5271 48.3028 14.5342 48.318 14.5471C48.3332 14.5602 48.3431 14.5782 48.3459 14.598C48.3459 14.6198 48.3373 14.6407 48.3217 14.6563C48.3063 14.6717 48.2854 14.6804 48.2635 14.6804H47.0863C47.0863 14.6804 47.0156 14.6804 47.0156 14.598C47.0156 14.5793 47.0232 14.5613 47.0363 14.548C47.0496 14.5348 47.0675 14.5273 47.0863 14.5273Z" fill="#666666"/>
<path fill-rule="evenodd" clip-rule="evenodd" d="M48.4766 12.9494C48.4766 12.9494 48.4766 13.0318 48.3 13.0318H45.1922C45.0627 13.0318 45.0273 13.0318 45.0273 12.9494V12.1371C45.0273 12.1371 45.0273 12.0547 45.1922 12.0547H48.2647C48.3942 12.0547 48.4413 12.0547 48.4413 12.1371L48.4766 12.9494Z" fill="#666666"/>
<path opacity="0.1" d="M52.904 49.7375H34.457L46.2645 21.9199H52.904V49.7375Z" fill="black"/>
<path opacity="0.1" d="M43.3692 13.1133V21.1066H36.8945L40.2731 13.1133H43.3692Z" fill="black"/>
</svg>
