<svg width="55" height="55" viewBox="0 0 55 55" fill="none" xmlns="http://www.w3.org/2000/svg">
<path fill-rule="evenodd" clip-rule="evenodd" d="M2.35658 18.5528H51.7997C52.1119 18.5528 52.4112 18.6768 52.6321 18.8976C52.8528 19.1184 52.9769 19.4179 52.9769 19.7301V31.255H1.25V19.7065C1.25 19.3943 1.37403 19.0948 1.59479 18.8741C1.81557 18.6533 2.11499 18.5293 2.42722 18.5293L2.35658 18.5528Z" fill="#CCCCCC"/>
<path opacity="0.2" fill-rule="evenodd" clip-rule="evenodd" d="M2.35658 18.5528H51.7997C52.1119 18.5528 52.4112 18.6768 52.6321 18.8976C52.8528 19.1184 52.9769 19.4179 52.9769 19.7301V31.255H1.25V19.7065C1.25 19.3943 1.37403 19.0948 1.59479 18.8741C1.81557 18.6533 2.11499 18.5293 2.42722 18.5293L2.35658 18.5528Z" fill="black"/>
<path fill-rule="evenodd" clip-rule="evenodd" d="M2.35658 18.5528H51.0933C51.4055 18.5528 51.7049 18.6768 51.9258 18.8976C52.1465 19.1184 52.2706 19.4179 52.2706 19.7301V31.255H1.25V19.7065C1.25 19.3943 1.37403 19.0948 1.59479 18.8741C1.81557 18.6533 2.11499 18.5293 2.42722 18.5293L2.35658 18.5528Z" fill="#CCCCCC"/>
<path fill-rule="evenodd" clip-rule="evenodd" d="M24.0375 28.1474H29.4291C29.5634 28.1474 29.6922 28.0941 29.7871 27.9992C29.882 27.9042 29.9353 27.7754 29.9353 27.6412C29.9418 27.5704 29.9337 27.4989 29.9113 27.4313C29.8889 27.3638 29.8528 27.3015 29.8053 27.2484C29.7578 27.1954 29.6999 27.1528 29.6352 27.1231C29.5705 27.0935 29.5003 27.0775 29.4291 27.0762H24.0375C23.9022 27.0792 23.7734 27.1352 23.6789 27.232C23.5842 27.3288 23.5312 27.4588 23.5312 27.5941C23.5312 27.7283 23.5846 27.8571 23.6796 27.9521C23.7745 28.047 23.9033 28.1004 24.0375 28.1004V28.1474Z" fill="#666666"/>
<path fill-rule="evenodd" clip-rule="evenodd" d="M45.465 28.3594C45.3336 28.3787 45.2135 28.4446 45.1267 28.545C45.0399 28.6456 44.9922 28.774 44.9922 28.9068C44.9922 29.0396 45.0399 29.1679 45.1267 29.2684C45.2135 29.369 45.3336 29.4349 45.465 29.4542C45.5963 29.4349 45.7164 29.369 45.8032 29.2684C45.8899 29.1679 45.9377 29.0396 45.9377 28.9068C45.9377 28.774 45.8899 28.6456 45.8032 28.545C45.7164 28.4446 45.5963 28.3787 45.465 28.3594Z" fill="#666666"/>
<path fill-rule="evenodd" clip-rule="evenodd" d="M47.44 28.3595C47.3302 28.3571 47.222 28.3875 47.1295 28.447C47.0369 28.5063 46.9642 28.5919 46.9205 28.6928C46.8768 28.7935 46.8642 28.9051 46.8843 29.0133C46.9042 29.1214 46.9559 29.2211 47.0328 29.2996C47.1097 29.3781 47.2082 29.4321 47.3159 29.4544C47.4235 29.4767 47.5354 29.4664 47.6372 29.4249C47.739 29.3834 47.8261 29.3126 47.8875 29.2213C47.9488 29.1301 47.9815 29.0226 47.9815 28.9127C47.9815 28.768 47.9249 28.6291 47.8237 28.5256C47.7224 28.4221 47.5847 28.3626 47.44 28.3595Z" fill="#666666"/>
<path fill-rule="evenodd" clip-rule="evenodd" d="M49.4439 28.3595C49.3341 28.3571 49.2259 28.3875 49.1334 28.447C49.0408 28.5063 48.9681 28.5919 48.9244 28.6928C48.8807 28.7935 48.8681 28.9051 48.8882 29.0133C48.9082 29.1214 48.9599 29.2211 49.0367 29.2996C49.1136 29.3781 49.2122 29.4321 49.3198 29.4544C49.4274 29.4767 49.5393 29.4664 49.6411 29.4249C49.7429 29.3834 49.8301 29.3126 49.8914 29.2213C49.9527 29.1301 49.9854 29.0226 49.9854 28.9127C49.9854 28.768 49.9288 28.6291 49.8276 28.5256C49.7263 28.4221 49.5886 28.3626 49.4439 28.3595Z" fill="#666666"/>
<path opacity="0.2" fill-rule="evenodd" clip-rule="evenodd" d="M51.7985 18.5527H32.7158L27.3359 31.2313H52.9051V19.7064C52.8996 19.4101 52.7827 19.1267 52.5777 18.913C52.3725 18.6991 52.0943 18.5705 51.7985 18.5527Z" fill="black"/>
<path fill-rule="evenodd" clip-rule="evenodd" d="M1.25781 31.2305H52.8904C52.8549 32.3795 52.3818 33.4716 51.5677 34.2835C50.7538 35.0953 49.6604 35.5654 48.5112 35.5979H5.63705C4.48789 35.5654 3.39453 35.0953 2.58053 34.2835C1.76653 33.4716 1.29338 32.3795 1.25781 31.2305Z" fill="#F7A720"/>
<path opacity="0.2" fill-rule="evenodd" clip-rule="evenodd" d="M1.25781 31.2305H52.8904C52.8549 32.3795 52.3818 33.4716 51.5677 34.2835C50.7538 35.0953 49.6604 35.5654 48.5112 35.5979H5.63705C4.48789 35.5654 3.39453 35.0953 2.58053 34.2835C1.76653 33.4716 1.29338 32.3795 1.25781 31.2305Z" fill="black"/>
<path fill-rule="evenodd" clip-rule="evenodd" d="M1.25781 31.2305H52.2194C52.107 32.2865 51.599 33.2608 50.7975 33.9575C49.996 34.6542 48.9604 35.0216 47.8991 34.9858H5.57819C4.51684 35.0216 3.4813 34.6542 2.67981 33.9575C1.8783 33.2608 1.37026 32.2865 1.25781 31.2305Z" fill="#F7A720"/>
<path fill-rule="evenodd" clip-rule="evenodd" d="M11.1602 34.9877H42.3799V33.5397C42.3799 33.1609 42.2302 32.7974 41.9634 32.5284C41.6967 32.2594 41.3343 32.1067 40.9555 32.1035H12.5846C12.2058 32.1067 11.8434 32.2594 11.5766 32.5284C11.3098 32.7974 11.1601 33.1609 11.1602 33.5397V34.9877Z" fill="#666666"/>
<path opacity="0.3" fill-rule="evenodd" clip-rule="evenodd" d="M11.1602 34.9877H42.3799V33.5397C42.3799 33.1609 42.2302 32.7974 41.9634 32.5284C41.6967 32.2594 41.3343 32.1067 40.9555 32.1035H12.5846C12.2058 32.1067 11.8434 32.2594 11.5766 32.5284C11.3098 32.7974 11.1601 33.1609 11.1602 33.5397V34.9877Z" fill="black"/>
<path fill-rule="evenodd" clip-rule="evenodd" d="M41.895 32.4676H13.1121C12.7523 32.4448 12.398 32.5639 12.1251 32.7994C11.8521 33.0349 11.6824 33.3679 11.6523 33.7272V34.9869H42.3777V33.5389C42.3758 33.3366 42.332 33.137 42.2489 32.9525C42.1658 32.7682 42.0453 32.603 41.895 32.4676Z" fill="#666666"/>
<path fill-rule="evenodd" clip-rule="evenodd" d="M13.0179 33.9988C12.8825 33.9957 12.7539 33.9398 12.6592 33.843C12.5646 33.7462 12.5117 33.6162 12.5117 33.4808C12.5117 33.3466 12.565 33.2178 12.6599 33.1229C12.7549 33.0279 12.8836 32.9746 13.0179 32.9746H40.5294C40.6636 32.9746 40.7924 33.0279 40.8873 33.1229C40.9823 33.2178 41.0356 33.3466 41.0356 33.4808C41.0356 33.6162 40.9827 33.7462 40.8881 33.843C40.7935 33.9398 40.6647 33.9957 40.5294 33.9988H13.0179Z" fill="#CCCCCC"/>
<path opacity="0.2" fill-rule="evenodd" clip-rule="evenodd" d="M52.8899 31.2305H27.3326L25.4844 35.5979H48.5107C49.6599 35.5654 50.7532 35.0953 51.5672 34.2835C52.3813 33.4716 52.8544 32.3795 52.8899 31.2305Z" fill="black"/>
</svg>
