<svg width="55" height="55" viewBox="0 0 55 55" fill="none" xmlns="http://www.w3.org/2000/svg">
<path d="M18.7271 14.5977L39.5376 35.408L27.3926 47.553C25.8693 49.0763 23.8033 49.9321 21.649 49.9321C19.4947 49.9321 17.4286 49.0763 15.9052 47.553L6.58223 38.2299C5.05891 36.7066 4.20312 34.6406 4.20312 32.4863C4.20312 30.332 5.05891 28.2658 6.58223 26.7425L18.7271 14.5977Z" fill="#F7A720"/>
<path d="M5.21648 49.8544C5.00722 49.6532 4.86886 49.3895 4.82216 49.103C4.77546 48.8165 4.82295 48.5225 4.9575 48.2652C5.72317 46.8946 6.65209 45.6217 7.72395 44.4746C8.73647 43.184 10.0025 42.1144 11.444 41.3314C11.7687 41.1753 12.1421 41.1546 12.4821 41.2738C12.822 41.3931 13.1008 41.6424 13.2569 41.9671C13.413 42.2919 13.4337 42.6653 13.3145 43.0053C13.1952 43.3452 12.9459 43.6239 12.6212 43.78C11.5054 44.4104 10.5316 45.264 9.76053 46.2875C8.84997 47.2435 8.05933 48.3069 7.4061 49.4542C7.32823 49.6144 7.21952 49.7577 7.08618 49.8757C6.95286 49.9938 6.79754 50.0845 6.62913 50.1424C6.46072 50.2004 6.28252 50.2245 6.10476 50.2135C5.92699 50.2025 5.75315 50.1565 5.59319 50.0781C5.45593 50.0254 5.32857 49.9497 5.21648 49.8544Z" fill="#F7A720"/>
<path opacity="0.2" d="M5.21648 49.8544C5.00722 49.6532 4.86886 49.3895 4.82216 49.103C4.77546 48.8165 4.82295 48.5225 4.9575 48.2652C5.72317 46.8946 6.65209 45.6217 7.72395 44.4746C8.73647 43.184 10.0025 42.1144 11.444 41.3314C11.7687 41.1753 12.1421 41.1546 12.4821 41.2738C12.822 41.3931 13.1008 41.6424 13.2569 41.9671C13.413 42.2919 13.4337 42.6653 13.3145 43.0053C13.1952 43.3452 12.9459 43.6239 12.6212 43.78C11.5054 44.4104 10.5316 45.264 9.76053 46.2875C8.84997 47.2435 8.05933 48.3069 7.4061 49.4542C7.32823 49.6144 7.21952 49.7577 7.08618 49.8757C6.95286 49.9938 6.79754 50.0845 6.62913 50.1424C6.46072 50.2004 6.28252 50.2245 6.10476 50.2135C5.92699 50.2025 5.75315 50.1565 5.59319 50.0781C5.45593 50.0254 5.32857 49.9497 5.21648 49.8544Z" fill="black"/>
<path d="M12.562 41.3674C12.3867 41.2862 12.196 41.2441 12.0028 41.2441C11.8096 41.2441 11.6189 41.2862 11.4436 41.3674C10.0021 42.1502 8.73615 43.22 7.72364 44.5106C6.65408 45.6467 5.72523 46.9076 4.95718 48.2659C4.83103 48.5191 4.78816 48.8057 4.83467 49.0849C4.88118 49.3639 5.01471 49.6211 5.21617 49.8198C5.31848 49.9254 5.43787 50.013 5.56933 50.0788C5.72378 50.1546 5.89194 50.1987 6.06376 50.2083C6.81439 48.9177 7.6729 47.6929 8.63009 46.5471C9.51254 45.3292 10.5719 44.25 11.7733 43.3451C12.1006 43.1448 12.3543 42.8439 12.4965 42.4874C12.6386 42.1309 12.6616 41.738 12.562 41.3674Z" fill="#F7A720"/>
<path d="M10.6862 38.8359L15.2894 43.4392L12.992 45.7367C12.3804 46.3482 11.551 46.6918 10.6862 46.6918C9.82133 46.6918 8.99191 46.3482 8.38039 45.7367C7.7725 45.1244 7.43205 44.2961 7.4336 43.4333C7.43516 42.5705 7.77861 41.7435 8.38871 41.1334L10.6862 38.8359Z" fill="#595959"/>
<path fill-rule="evenodd" clip-rule="evenodd" d="M8.05244 45.4047C7.79439 45.1478 7.58963 44.8423 7.44992 44.5059C7.3102 44.1695 7.23828 43.8089 7.23828 43.4447C7.23828 43.0805 7.3102 42.7199 7.44992 42.3834C7.58963 42.0471 7.79439 41.7416 8.05244 41.4846L10.7012 38.8477L14.6095 42.7678L11.9725 45.4165C11.4489 45.9304 10.7438 46.2174 10.0101 46.2151C9.27637 46.2129 8.57306 45.9218 8.05244 45.4047Z" fill="#666666"/>
<path opacity="0.2" d="M18.7271 14.5977L39.5376 35.408L27.3926 47.553C25.8693 49.0763 23.8033 49.9321 21.649 49.9321C19.4947 49.9321 17.4286 49.0763 15.9052 47.553L6.58223 38.2299C5.05891 36.7066 4.20312 34.6406 4.20312 32.4863C4.20312 30.332 5.05891 28.2658 6.58223 26.7425L18.7271 14.5977Z" fill="black"/>
<path fill-rule="evenodd" clip-rule="evenodd" d="M14.4677 46.1235L6.58046 38.2361C5.82444 37.4826 5.22459 36.5873 4.81529 35.6015C4.406 34.6157 4.19531 33.5587 4.19531 32.4913C4.19531 31.4239 4.406 30.367 4.81529 29.3812C5.22459 28.3954 5.82444 27.5001 6.58046 26.7465L18.7293 14.5977L38.1062 33.9746L25.9574 46.1235C24.4325 47.6447 22.3665 48.4989 20.2125 48.4989C18.0587 48.4989 15.9927 47.6447 14.4677 46.1235Z" fill="#F7A720"/>
<path fill-rule="evenodd" clip-rule="evenodd" d="M20.8373 32.6454L23.4154 35.2235L11.9258 35.9416L18.2827 33.5283L15.7635 30.9973L26.7822 30.3027L20.8373 32.6454Z" fill="white"/>
<path fill-rule="evenodd" clip-rule="evenodd" d="M36.4947 8.74705L26.7945 18.4473L23.0156 14.6684L32.7041 4.96819C33.2088 4.46927 33.8898 4.18945 34.5994 4.18945C35.309 4.18945 35.9901 4.46927 36.4947 4.96819C36.9929 5.47084 37.2724 6.14992 37.2724 6.85762C37.2724 7.56533 36.9929 8.24439 36.4947 8.74705Z" fill="#CCCCCC"/>
<path opacity="0.2" fill-rule="evenodd" clip-rule="evenodd" d="M36.4947 8.74705L26.7945 18.4473L23.0156 14.6684L32.7041 4.96819C33.2088 4.46927 33.8898 4.18945 34.5994 4.18945C35.309 4.18945 35.9901 4.46927 36.4947 4.96819C36.9929 5.47084 37.2724 6.14992 37.2724 6.85762C37.2724 7.56533 36.9929 8.24439 36.4947 8.74705Z" fill="black"/>
<path fill-rule="evenodd" clip-rule="evenodd" d="M35.9886 7.27423L25.7939 17.4689L23.0039 14.6671L33.1868 4.47246C33.5609 4.10578 34.064 3.90039 34.5877 3.90039C35.1116 3.90039 35.6146 4.10578 35.9886 4.47246C36.3553 4.84655 36.5607 5.34951 36.5607 5.87334C36.5607 6.39718 36.3553 6.90014 35.9886 7.27423Z" fill="#CCCCCC"/>
<path fill-rule="evenodd" clip-rule="evenodd" d="M49.1744 21.4483L39.4742 31.1367L35.6953 27.3579L45.3838 17.6576C45.8885 17.1587 46.5695 16.8789 47.2791 16.8789C47.9887 16.8789 48.6698 17.1587 49.1744 17.6576C49.6733 18.1623 49.9532 18.8433 49.9532 19.553C49.9532 20.2626 49.6733 20.9436 49.1744 21.4483Z" fill="#CCCCCC"/>
<path opacity="0.2" fill-rule="evenodd" clip-rule="evenodd" d="M49.1744 21.4483L39.4742 31.1367L35.6953 27.3579L45.3838 17.6576C45.8885 17.1587 46.5695 16.8789 47.2791 16.8789C47.9887 16.8789 48.6698 17.1587 49.1744 17.6576C49.6733 18.1623 49.9532 18.8433 49.9532 19.553C49.9532 20.2626 49.6733 20.9436 49.1744 21.4483Z" fill="black"/>
<path fill-rule="evenodd" clip-rule="evenodd" d="M48.68 20.0126L38.4853 30.2073L35.6953 27.4055L45.9135 17.1755C46.0973 16.9912 46.3157 16.8448 46.5561 16.745C46.7965 16.6452 47.0541 16.5938 47.3144 16.5938C47.5747 16.5938 47.8325 16.6452 48.0729 16.745C48.3133 16.8448 48.5315 16.9912 48.7153 17.1755C48.9043 17.3613 49.0536 17.5834 49.1547 17.8285C49.2555 18.0736 49.3058 18.3366 49.3025 18.6016C49.2992 18.8666 49.2424 19.1282 49.1355 19.3707C49.0285 19.6132 48.8735 19.8314 48.68 20.0126Z" fill="#CCCCCC"/>
<path opacity="0.4" d="M24.4507 15.3017L38.8349 29.6858C39.2557 30.1089 39.5892 30.6106 39.8161 31.1626C40.043 31.7145 40.159 32.3057 40.1575 32.9024C40.1559 33.4992 40.0369 34.0898 39.8071 34.6405C39.5773 35.1912 39.2412 35.6913 38.8183 36.1121L18.0078 15.3017C18.86 14.4495 20.0158 13.9707 21.2209 13.9707C22.4261 13.9707 23.5819 14.4495 24.4341 15.3017H24.4507Z" fill="black"/>
<path d="M42.3018 32.1317L22.0074 11.8373C21.1202 10.9501 19.6816 10.9501 18.7944 11.8373C17.9071 12.7246 17.9071 14.1631 18.7944 15.0504L39.0886 35.3448C39.9759 36.232 41.4145 36.232 42.3018 35.3448C43.1891 34.4575 43.1891 33.019 42.3018 32.1317Z" fill="#595959"/>
<path d="M40.965 30.7832L22.0193 11.8373C21.132 10.9501 19.6935 10.9501 18.8061 11.8373C17.9188 12.7247 17.9188 14.1632 18.8061 15.0505L37.7519 33.9963C38.6392 34.8835 40.0778 34.8835 40.965 33.9963C41.8523 33.109 41.8523 31.6704 40.965 30.7832Z" fill="#666666"/>
<path fill-rule="evenodd" clip-rule="evenodd" d="M31.4332 25.5692L27.2305 21.3547C27.1575 21.2835 27.0996 21.1983 27.0599 21.1043C27.0204 21.0103 27 20.9093 27 20.8073C27 20.7053 27.0204 20.6044 27.0599 20.5103C27.0996 20.4164 27.1575 20.3311 27.2305 20.2599C27.3775 20.1182 27.5738 20.0391 27.7779 20.0391C27.982 20.0391 28.1783 20.1182 28.3253 20.2599L32.528 24.4743C32.601 24.5456 32.6589 24.6308 32.6985 24.7247C32.7381 24.8188 32.7585 24.9197 32.7585 25.0217C32.7585 25.1237 32.7381 25.2247 32.6985 25.3188C32.6589 25.4127 32.601 25.4979 32.528 25.5692C32.3809 25.7109 32.1847 25.79 31.9806 25.79C31.7764 25.79 31.5802 25.7109 31.4332 25.5692Z" fill="#595959"/>
</svg>
