<svg width="55" height="55" viewBox="0 0 55 55" fill="none" xmlns="http://www.w3.org/2000/svg">
<path d="M41.1973 42.2736H41.0678C41.0046 42.2585 40.9449 42.2308 40.8926 42.1922C40.8402 42.1536 40.7962 42.1047 40.7632 42.0487C40.7303 41.9925 40.709 41.9304 40.7006 41.8659C40.6922 41.8014 40.6971 41.7358 40.7146 41.6732C40.7735 41.4495 46.742 18.2937 40.903 12.1251C38.5485 9.68824 36.0293 8.75824 33.6866 9.51165C30.8142 10.4417 28.5775 13.8085 28.0007 18.0818C27.9831 18.2112 27.9151 18.3283 27.8115 18.4078C27.7078 18.4871 27.5769 18.5223 27.4474 18.5056C27.318 18.488 27.2009 18.42 27.1215 18.3163C27.0421 18.2127 27.0069 18.0818 27.0236 17.9523C27.6475 13.2434 30.155 9.6176 33.3923 8.53456C36.1117 7.66343 39.0312 8.67583 41.6328 11.4187C47.8485 17.9758 41.9389 40.9198 41.6328 41.8851C41.6109 41.9876 41.5568 42.0806 41.4785 42.1504C41.4002 42.2202 41.3018 42.2634 41.1973 42.2736Z" fill="#666666"/>
<path d="M12.0835 42.2735C11.9744 42.2715 11.8691 42.2333 11.7839 42.1652C11.6988 42.0971 11.6385 42.0027 11.6126 41.8968C11.3536 40.9315 5.44396 17.9875 11.6126 11.4305C14.2024 8.68754 17.1219 7.67515 19.8531 8.54629C23.0904 9.59401 25.5861 13.2551 26.21 17.964C26.2268 18.0935 26.1916 18.2244 26.1122 18.328C26.0327 18.4317 25.9156 18.4997 25.7862 18.5173C25.6567 18.534 25.5258 18.4988 25.4222 18.4195C25.3185 18.3401 25.2505 18.2229 25.2329 18.0935C24.6561 13.8202 22.4194 10.4534 19.547 9.52337C17.1926 8.76996 14.638 9.69996 12.3307 12.1368C6.44459 18.3054 12.4602 41.4612 12.519 41.6849C12.5367 41.7475 12.5414 41.8131 12.533 41.8776C12.5248 41.9421 12.5034 42.0043 12.4704 42.0604C12.4374 42.1165 12.3934 42.1653 12.3411 42.2039C12.2888 42.2425 12.2292 42.2702 12.1659 42.2853L12.0835 42.2735Z" fill="#666666"/>
<path d="M12.4864 32.8196C12.3988 32.8187 12.3129 32.7954 12.2367 32.7521C12.1606 32.7089 12.0966 32.6471 12.0508 32.5724C11.9873 32.4583 11.9714 32.3238 12.0067 32.198C12.042 32.0724 12.1256 31.9658 12.2392 31.9014L14.5936 30.5476V25.2266L21.7864 28.8406C21.8442 28.8693 21.8958 28.9092 21.9379 28.9582C21.9801 29.0071 22.012 29.064 22.0317 29.1255C22.0514 29.187 22.0587 29.2518 22.0529 29.3161C22.0472 29.3804 22.0286 29.4429 21.9983 29.4999C21.971 29.559 21.9317 29.6117 21.8829 29.6548C21.8342 29.6979 21.777 29.7304 21.7151 29.7502C21.6532 29.7703 21.5878 29.7771 21.5231 29.7704C21.4583 29.7638 21.3957 29.7439 21.3391 29.7118L15.6178 26.8276V31.1244L12.7219 32.7607C12.6489 32.7979 12.5683 32.8181 12.4864 32.8196Z" fill="#666666"/>
<path d="M18.5832 45.1456H18.489C18.4247 45.1343 18.3633 45.1103 18.3083 45.0751C18.2535 45.0399 18.2059 44.9942 18.1687 44.9405C18.1315 44.887 18.1052 44.8265 18.0916 44.7627C18.0778 44.6989 18.0769 44.6329 18.0888 44.5688L19.0188 39.4832L16.6055 32.5259L22.7623 31.7018C22.8864 31.6955 23.0082 31.7361 23.1037 31.8155C23.1992 31.895 23.2613 32.0075 23.2776 32.1307C23.2939 32.2538 23.2633 32.3786 23.1919 32.4802C23.1203 32.5818 23.0132 32.6527 22.8918 32.6789L17.9357 33.3381L20.0783 39.4008L19.0658 44.7336C19.0465 44.848 18.9876 44.952 18.8994 45.0272C18.8111 45.1025 18.6991 45.1444 18.5832 45.1456Z" fill="#666666"/>
<path d="M21.6315 24.357C21.5618 24.3736 21.4893 24.3736 21.4196 24.357L17.1934 22.3675V18.0353C17.1824 17.9648 17.1868 17.8928 17.2063 17.8241C17.2259 17.7555 17.26 17.6919 17.3064 17.6377C17.3528 17.5835 17.4105 17.5399 17.4752 17.5102C17.5401 17.4804 17.6106 17.4648 17.6819 17.4648C17.7533 17.4648 17.8238 17.4804 17.8886 17.5102C17.9535 17.5399 18.0111 17.5835 18.0575 17.6377C18.104 17.6919 18.1381 17.7555 18.1575 17.8241C18.1771 17.8928 18.1814 17.9648 18.1705 18.0353V21.6847L21.8434 23.4152C21.9452 23.4631 22.0276 23.5443 22.0769 23.6455C22.1264 23.7465 22.1399 23.8614 22.1152 23.9711C22.0905 24.0809 22.0291 24.179 21.9412 24.2491C21.8533 24.3193 21.744 24.3573 21.6315 24.357Z" fill="#666666"/>
<path d="M40.7991 32.8196C40.7171 32.8181 40.6367 32.7979 40.5636 32.7607L37.6677 31.1244V26.8276L31.9111 29.7118C31.8545 29.7439 31.7918 29.7638 31.7271 29.7704C31.6625 29.7771 31.597 29.7703 31.5351 29.7502C31.4732 29.7304 31.416 29.6979 31.3672 29.6548C31.3185 29.6117 31.2793 29.559 31.2519 29.4999C31.2216 29.4429 31.203 29.3804 31.1972 29.3161C31.1915 29.2518 31.1988 29.187 31.2185 29.1255C31.2382 29.064 31.2701 29.0071 31.3122 28.9582C31.3544 28.9092 31.4059 28.8693 31.4638 28.8406L38.6212 25.2266V30.6064L40.9756 31.9602C41.0894 32.0246 41.1729 32.1313 41.2081 32.2569C41.2435 32.3826 41.2276 32.5172 41.164 32.6312C41.1193 32.6859 41.0638 32.7308 41.0011 32.7632C40.9383 32.7956 40.8696 32.8148 40.7991 32.8196Z" fill="#666666"/>
<path d="M34.6993 45.1464C34.5916 45.1348 34.4907 45.0883 34.412 45.0139C34.3333 44.9394 34.2812 44.8412 34.2637 44.7343L33.2984 39.3898L35.441 33.3389L30.4849 32.6797C30.4167 32.6761 30.35 32.6586 30.2889 32.6281C30.2278 32.5975 30.1737 32.5546 30.1301 32.5021C30.0864 32.4496 30.054 32.3887 30.0351 32.3231C30.0161 32.2574 30.0109 32.1886 30.0199 32.121C30.029 32.0531 30.0518 31.988 30.0872 31.9297C30.1225 31.8713 30.1696 31.8208 30.2255 31.7816C30.2813 31.7422 30.3448 31.7149 30.4117 31.7013C30.4786 31.6877 30.5476 31.6881 30.6144 31.7026L36.7712 32.5266L34.2637 39.484L35.1937 44.5695C35.2056 44.6337 35.2047 44.6996 35.1909 44.7634C35.1773 44.8272 35.151 44.8877 35.1138 44.9413C35.0766 44.995 35.0292 45.0407 34.9742 45.0759C34.9192 45.1111 34.8578 45.1349 34.7935 45.1464H34.6993Z" fill="#666666"/>
<path d="M31.652 24.357C31.5394 24.3573 31.4303 24.3193 31.3424 24.2491C31.2544 24.179 31.193 24.0809 31.1683 23.9711C31.1437 23.8614 31.1571 23.7465 31.2065 23.6455C31.2558 23.5443 31.3382 23.4631 31.4401 23.4152L35.113 21.6847V18.0353C35.102 17.9648 35.1064 17.8928 35.1259 17.8241C35.1455 17.7555 35.1796 17.6919 35.226 17.6377C35.2724 17.5835 35.3301 17.5399 35.3948 17.5102C35.4597 17.4804 35.5302 17.4648 35.6015 17.4648C35.6729 17.4648 35.7434 17.4804 35.8083 17.5102C35.8731 17.5399 35.9307 17.5835 35.9771 17.6377C36.0234 17.6919 36.0576 17.7555 36.0771 17.8241C36.0967 17.8928 36.101 17.9648 36.0901 18.0353V22.3675L31.911 24.3099C31.831 24.3506 31.7411 24.367 31.652 24.357Z" fill="#666666"/>
<path fill-rule="evenodd" clip-rule="evenodd" d="M26.0829 45.4991V27.9115C26.0763 27.6708 25.9959 27.438 25.8529 27.2442C25.7097 27.0505 25.5105 26.9055 25.2824 26.8285L20.7266 25.4512C20.7269 29.4247 21.0696 33.3909 21.7507 37.3057C22.7631 41.9086 23.1752 43.9452 26.0829 45.4991Z" fill="#F7A720"/>
<path opacity="0.2" fill-rule="evenodd" clip-rule="evenodd" d="M26.0824 45.4992V27.9115C26.0758 27.6709 25.9955 27.4379 25.8524 27.2443C25.7092 27.0506 25.51 26.9055 25.2819 26.8286L24.9287 26.7227C23.7257 28.5299 22.9489 30.5869 22.6567 32.7381C22.2203 35.3621 22.1806 38.0369 22.539 40.6725C22.7121 41.6978 23.1227 42.6683 23.738 43.5063C24.3533 44.3444 25.1561 45.0269 26.0824 45.4992Z" fill="black"/>
<path fill-rule="evenodd" clip-rule="evenodd" d="M27.2031 45.4991V27.9115C27.2097 27.6708 27.29 27.438 27.4332 27.2442C27.5763 27.0505 27.7755 26.9055 28.0036 26.8285L32.5595 25.4512C32.5591 29.4247 32.2164 33.3909 31.5353 37.3057C30.5229 41.9086 30.1108 43.9452 27.2031 45.4991Z" fill="#F7A720"/>
<path opacity="0.2" fill-rule="evenodd" clip-rule="evenodd" d="M27.2031 45.4991V27.9115C27.2097 27.6708 27.29 27.438 27.4332 27.2442C27.5763 27.0505 27.7755 26.9055 28.0036 26.8285L32.5595 25.4512C32.5591 29.4247 32.2164 33.3909 31.5353 37.3057C30.5229 41.9086 30.1108 43.9452 27.2031 45.4991Z" fill="black"/>
<path fill-rule="evenodd" clip-rule="evenodd" d="M20.9378 24.3685C20.9378 24.3685 20.8319 23.7917 21.6795 22.2966C21.8769 21.8895 22.1673 21.5347 22.5272 21.2607C22.8872 20.9867 23.3065 20.8012 23.7514 20.7191C23.7514 20.7191 24.4224 17.1875 26.6591 17.1875C28.8958 17.1875 29.8847 20.8486 29.8847 20.8486C30.6076 21.2709 31.2302 21.8454 31.7094 22.5321C32.0266 23.0806 32.2532 23.6769 32.3804 24.2979L27.7892 25.8989C27.4093 26.0241 27.0119 26.0877 26.612 26.0872C26.236 26.0876 25.8625 26.028 25.5054 25.9107L20.9378 24.3685Z" fill="#F7A720"/>
<path opacity="0.2" fill-rule="evenodd" clip-rule="evenodd" d="M20.9378 24.3685C20.9378 24.3685 20.8319 23.7917 21.6795 22.2966C21.8769 21.8895 22.1673 21.5347 22.5272 21.2607C22.8872 20.9867 23.3065 20.8012 23.7514 20.7191C23.7514 20.7191 24.4224 17.1875 26.6591 17.1875C28.8958 17.1875 29.8847 20.8486 29.8847 20.8486C30.6076 21.2709 31.2302 21.8454 31.7094 22.5321C32.0266 23.0806 32.2532 23.6769 32.3804 24.2979L27.7892 25.8989C27.4093 26.0241 27.0119 26.0877 26.612 26.0872C26.236 26.0876 25.8625 26.028 25.5054 25.9107L20.9378 24.3685Z" fill="black"/>
<path fill-rule="evenodd" clip-rule="evenodd" d="M20.9378 24.3685C20.9378 24.3685 20.8319 23.7917 21.6795 22.2966C21.8769 21.8895 22.1673 21.5347 22.5272 21.2607C22.8872 20.9867 23.3065 20.8012 23.7514 20.7191C23.7514 20.7191 24.4224 17.1875 26.6591 17.1875C27.1634 17.2252 27.6483 17.3982 28.0626 17.6882C28.477 17.9782 28.8054 18.3746 29.0135 18.8356C29.3108 19.4545 29.4287 20.1443 29.3539 20.8269C29.2789 21.5093 29.0142 22.1571 28.5897 22.6969C27.6663 23.8304 26.6673 24.9001 25.5996 25.8989L20.9378 24.3685Z" fill="#F7A720"/>
<path d="M26.0132 19.1064C26.1887 19.1064 26.331 18.9642 26.331 18.7886C26.331 18.613 26.1887 18.4707 26.0132 18.4707C25.8376 18.4707 25.6953 18.613 25.6953 18.7886C25.6953 18.9642 25.8376 19.1064 26.0132 19.1064Z" fill="#666666"/>
<path d="M27.271 19.1064C27.4466 19.1064 27.5888 18.9642 27.5888 18.7886C27.5888 18.613 27.4466 18.4707 27.271 18.4707C27.0954 18.4707 26.9531 18.613 26.9531 18.7886C26.9531 18.9642 27.0954 19.1064 27.271 19.1064Z" fill="#666666"/>
<path d="M27.1992 52.9042C22.0908 52.9042 17.0973 51.3895 12.8499 48.5515C8.60247 45.7134 5.29202 41.6796 3.33715 36.9601C1.38228 32.2407 0.870803 27.0475 1.86739 22.0374C2.86397 17.0272 5.32386 12.4251 8.93599 8.81293C12.5481 5.20081 17.1502 2.74092 22.1604 1.74434C27.1705 0.747755 32.3637 1.25923 37.0831 3.21411C41.8027 5.16898 45.8364 8.47943 48.6745 12.7268C51.5125 16.9743 53.0273 21.9678 53.0273 27.0761C53.0086 33.9204 50.2815 40.4792 45.4418 45.3188C40.6022 50.1585 34.0435 52.8856 27.1992 52.9042ZM27.1992 3.99097C22.6334 3.99097 18.1701 5.34489 14.3737 7.88153C10.5774 10.4182 7.61854 14.0236 5.87127 18.2418C4.12401 22.4601 3.66684 27.1018 4.55759 31.5799C5.44835 36.0579 7.647 40.1713 10.8755 43.3998C14.104 46.6284 18.2174 48.827 22.6955 49.7177C27.1736 50.6085 31.8152 50.1514 36.0335 48.4041C40.2517 46.6568 43.8572 43.6979 46.3939 39.9016C48.9305 36.1052 50.2844 31.6419 50.2844 27.0761C50.275 20.9565 47.8398 15.0901 43.5126 10.7628C39.1853 6.4355 33.3189 4.00031 27.1992 3.99097Z" fill="#F45E22"/>
<path d="M42.6272 7.94922L7.90625 42.2845L9.83492 44.2348L44.5558 9.89956L42.6272 7.94922Z" fill="#F45E22"/>
<g opacity="0.2">
<path opacity="0.2" d="M27.1992 52.9042C22.0908 52.9042 17.0973 51.3895 12.8499 48.5515C8.60247 45.7134 5.29202 41.6796 3.33715 36.9601C1.38228 32.2407 0.870803 27.0475 1.86739 22.0374C2.86397 17.0272 5.32386 12.4251 8.93599 8.81293C12.5481 5.20081 17.1502 2.74092 22.1604 1.74434C27.1705 0.747755 32.3637 1.25923 37.0831 3.21411C41.8027 5.16898 45.8364 8.47943 48.6745 12.7268C51.5125 16.9743 53.0273 21.9678 53.0273 27.0761C53.0086 33.9204 50.2815 40.4792 45.4418 45.3188C40.6022 50.1585 34.0435 52.8856 27.1992 52.9042ZM27.1992 3.99097C22.6334 3.99097 18.1701 5.34489 14.3737 7.88153C10.5774 10.4182 7.61854 14.0236 5.87127 18.2418C4.12401 22.4601 3.66684 27.1018 4.55759 31.5799C5.44835 36.0579 7.647 40.1713 10.8755 43.3998C14.104 46.6284 18.2174 48.827 22.6955 49.7177C27.1736 50.6085 31.8152 50.1514 36.0335 48.4041C40.2517 46.6568 43.8572 43.6979 46.3939 39.9016C48.9305 36.1052 50.2844 31.6419 50.2844 27.0761C50.275 20.9565 47.8398 15.0901 43.5126 10.7628C39.1853 6.4355 33.3189 4.00031 27.1992 3.99097Z" fill="black"/>
<path opacity="0.2" d="M42.6233 7.94922L7.90234 42.2845L9.83101 44.2348L44.5519 9.89956L42.6233 7.94922Z" fill="black"/>
</g>
<path d="M26.9913 52.4569C21.9262 52.4592 16.9742 50.9592 12.7618 48.1467C8.54929 45.3341 5.26569 41.3354 3.32628 36.6563C1.38689 31.9772 0.878842 26.8281 1.86642 21.8602C2.854 16.8924 5.29282 12.329 8.87438 8.74742C12.4559 5.16587 17.0193 2.72705 21.9871 1.73947C26.955 0.75189 32.1042 1.25993 36.7833 3.19933C41.4624 5.13874 45.4611 8.42234 48.2737 12.6347C51.0863 16.8472 52.5861 21.7991 52.5839 26.8642C52.5714 33.648 49.871 40.1504 45.0742 44.9473C40.2773 49.7441 33.775 52.4445 26.9913 52.4569ZM26.9913 3.97919C22.4645 3.97687 18.0388 5.31707 14.2738 7.8303C10.5088 10.3435 7.5737 13.9168 5.83978 18.0983C4.10586 22.2799 3.65097 26.8816 4.53267 31.3217C5.41437 35.7617 7.59303 39.8405 10.7931 43.0423C13.9931 46.244 18.0709 48.4248 22.5104 49.3088C26.95 50.1927 31.552 49.7402 35.7344 48.0084C39.9168 46.2766 43.4917 43.3435 46.0068 39.5798C48.522 35.8161 49.8645 31.391 49.8645 26.8642C49.8583 20.7987 47.4468 14.9832 43.1589 10.6931C38.871 6.40302 33.0567 3.98854 26.9913 3.97919Z" fill="#F45E22"/>
<path d="M42.2805 7.91016L7.86328 41.9331L9.77506 43.867L44.1923 9.84407L42.2805 7.91016Z" fill="#F45E22"/>
</svg>
