<svg width="55" height="55" viewBox="0 0 55 55" fill="none" xmlns="http://www.w3.org/2000/svg">
<path d="M26.1084 27.7825H24.6016V22.6263C24.6065 22.0216 24.82 21.4371 25.2061 20.9717C25.5922 20.5062 26.1272 20.1883 26.7205 20.0718L48.4519 15.5042C48.7852 15.423 49.0818 15.2331 49.295 14.9645C49.5082 14.6959 49.6258 14.3638 49.6292 14.0209V9.31202C49.6261 9.10949 49.5832 8.90955 49.5028 8.72362C49.4225 8.53769 49.3063 8.36941 49.1609 8.22839C49.0155 8.08737 48.8437 7.97637 48.6554 7.90174C48.4671 7.8271 48.266 7.79029 48.0635 7.79341H46.5331V6.34543H48.4519C48.8047 6.33285 49.1564 6.3909 49.4863 6.51616C49.8163 6.64141 50.1179 6.83136 50.3735 7.07483C50.629 7.3183 50.8333 7.61038 50.9743 7.93392C51.1154 8.25746 51.1904 8.60593 51.1949 8.95885V14.3152C51.1856 14.9187 50.9704 15.5009 50.5851 15.9655C50.1997 16.4301 49.6673 16.7491 49.0759 16.8697L27.3445 21.4373C27.0004 21.507 26.6903 21.6919 26.4656 21.9616C26.2408 22.2313 26.1148 22.5696 26.1084 22.9206V27.7825Z" fill="#666666"/>
<path d="M25.1804 22.9558C25.1357 22.9528 25.0937 22.9328 25.0631 22.9C25.0325 22.8673 25.0155 22.824 25.0156 22.7792C25.0233 22.2026 25.2285 21.6461 25.597 21.2026C25.9655 20.7591 26.475 20.4555 27.0404 20.3423L48.5717 15.8101C48.9979 15.7242 49.382 15.4954 49.6603 15.1614C49.9387 14.8274 50.0945 14.4083 50.1021 13.9736V9.19411C50.1021 9.1504 50.1194 9.10848 50.1504 9.07757C50.1813 9.04666 50.2232 9.0293 50.2669 9.0293C50.3118 9.0292 50.355 9.04618 50.3878 9.07679C50.4206 9.1074 50.4405 9.14934 50.4435 9.19411V13.9736C50.4371 14.4864 50.2547 14.9815 49.9268 15.3758C49.5989 15.7702 49.1454 16.0398 48.6423 16.1397L27.0758 20.6837C26.5872 20.7783 26.146 21.0383 25.8266 21.4199C25.5071 21.8016 25.3289 22.2815 25.3217 22.7792C25.3225 22.8205 25.3089 22.8608 25.283 22.893C25.2572 22.9253 25.2209 22.9475 25.1804 22.9558Z" fill="white"/>
<path fill-rule="evenodd" clip-rule="evenodd" d="M27.0627 27.3594H23.6723C23.4514 27.3639 23.2398 27.449 23.0772 27.5986C22.9146 27.7481 22.8123 27.9519 22.7894 28.1717L20.9176 50.3033C20.7999 51.7042 21.3767 52.9049 22.2008 52.9049H28.5342C29.3582 52.9049 29.9351 51.7277 29.8173 50.3033L27.9338 28.1717C27.9162 27.952 27.817 27.7468 27.6558 27.5965C27.4946 27.4462 27.283 27.3616 27.0627 27.3594Z" fill="#F7A720"/>
<path opacity="0.15" fill-rule="evenodd" clip-rule="evenodd" d="M27.0627 27.3594H23.6723C23.4514 27.3639 23.2398 27.449 23.0772 27.5986C22.9146 27.7481 22.8123 27.9519 22.7894 28.1717L20.9176 50.3033C20.7999 51.7042 21.3767 52.9049 22.2008 52.9049H28.5342C29.3582 52.9049 29.9351 51.7277 29.8173 50.3033L27.9338 28.1717C27.9162 27.952 27.817 27.7468 27.6558 27.5965C27.4946 27.4462 27.283 27.3616 27.0627 27.3594Z" fill="black"/>
<path fill-rule="evenodd" clip-rule="evenodd" d="M26.3547 27.3583H23.5882C23.3896 27.3604 23.199 27.4363 23.0532 27.5712C22.9074 27.7061 22.817 27.8903 22.7995 28.0881L20.9984 49.278C20.8924 50.4552 21.3986 51.5265 22.1756 51.5265H27.1552C27.8968 51.5265 28.4266 50.4906 28.3324 49.278L27.1552 28.0881C27.1507 27.9876 27.1263 27.889 27.0836 27.7979C27.0409 27.7068 26.9807 27.625 26.9063 27.5572C26.832 27.4894 26.745 27.4369 26.6503 27.4028C26.5557 27.3687 26.4552 27.3535 26.3547 27.3583Z" fill="#F7A720"/>
<path d="M3.87109 3.41367L3.87109 10.8184C3.87109 12.0081 4.83561 12.9727 6.0254 12.9727L44.6263 12.9727C45.8161 12.9727 46.7806 12.0081 46.7806 10.8184V3.41367C46.7806 2.22388 45.8161 1.25936 44.6263 1.25936L6.0254 1.25936C4.83561 1.25936 3.87109 2.22388 3.87109 3.41367Z" fill="#D8D8D8"/>
<path opacity="0.1" d="M3.87109 3.41367L3.87109 10.8184C3.87109 12.0081 4.83561 12.9727 6.0254 12.9727L44.6263 12.9727C45.8161 12.9727 46.7806 12.0081 46.7806 10.8184V3.41367C46.7806 2.22388 45.8161 1.25936 44.6263 1.25936L6.0254 1.25936C4.83561 1.25936 3.87109 2.22388 3.87109 3.41367Z" fill="black"/>
<path d="M3.87109 3.13202L3.87109 8.31177C3.87109 9.35202 4.71438 10.1953 5.75464 10.1953L44.897 10.1953C45.9373 10.1953 46.7806 9.35202 46.7806 8.31177V3.13202C46.7806 2.09177 45.9373 1.24848 44.897 1.24848L5.75464 1.24848C4.71438 1.24848 3.87109 2.09177 3.87109 3.13202Z" fill="#D8D8D8"/>
<path fill-rule="evenodd" clip-rule="evenodd" d="M44.897 1.24805H5.75464C5.25509 1.24805 4.776 1.44649 4.42277 1.79972C4.06954 2.15296 3.87109 2.63204 3.87109 3.13159V4.30881C5.16603 3.66134 6.62578 2.80197 6.81413 3.59071L7.39097 6.07463C7.39097 6.2159 7.77945 7.88754 8.99198 7.88754C10.2045 7.88754 10.6048 6.42779 10.6519 6.20412L11.0521 3.60248C12.0029 4.01409 13.0194 4.25326 14.054 4.30881C14.7983 4.24879 15.5331 4.10262 16.2436 3.87324C16.2436 3.87324 16.1494 5.05045 16.5262 5.45071C16.7379 5.68455 17.0139 5.85065 17.3197 5.92814C17.6255 6.00563 17.9474 5.99107 18.2449 5.88627C18.6655 5.61453 18.9682 5.19415 19.0925 4.70906C19.3563 5.7225 19.6866 6.71744 20.0813 7.68741C20.4934 8.49969 21.0113 9.3002 21.8354 9.19425C22.8713 9.05298 23.46 8.22893 23.4717 6.83982C23.3093 5.44078 23.3809 4.02446 23.6836 2.64893C27.3094 2.40172 26.25 2.95501 29.2401 3.28463C30.7351 3.44944 32.5245 3.47298 33.5016 3.56716C34.3633 3.57156 35.2098 3.79432 35.962 4.21463C36.6349 4.73165 37.2091 5.36571 37.6572 6.0864C37.8623 6.4637 38.0356 6.85747 38.1751 7.26362C38.3075 7.53826 38.5273 7.76122 38.7999 7.89757C39.0726 8.03391 39.3829 8.07593 39.682 8.01703C40.9416 7.92286 40.8592 6.42779 41.0005 5.81564C41.1417 5.20349 40.8592 3.46121 41.4007 2.88438C41.9422 2.30754 42.7427 2.47235 43.4608 2.284C44.1789 2.09564 44.8382 1.56589 45.5327 1.38931C45.3305 1.30613 45.1155 1.25834 44.897 1.24805Z" fill="#F7A720"/>
<path opacity="0.3" fill-rule="evenodd" clip-rule="evenodd" d="M44.897 1.24805H5.75464C5.25509 1.24805 4.776 1.44649 4.42277 1.79972C4.06954 2.15296 3.87109 2.63204 3.87109 3.13159V4.30881C5.16603 3.66134 6.62578 2.80197 6.81413 3.59071L7.39097 6.07463C7.39097 6.2159 7.77945 7.88754 8.99198 7.88754C10.2045 7.88754 10.6048 6.42779 10.6519 6.20412L11.0521 3.60248C12.0029 4.01409 13.0194 4.25326 14.054 4.30881C14.7983 4.24879 15.5331 4.10262 16.2436 3.87324C16.2436 3.87324 16.1494 5.05045 16.5262 5.45071C16.7379 5.68455 17.0139 5.85065 17.3197 5.92814C17.6255 6.00563 17.9474 5.99107 18.2449 5.88627C18.6655 5.61453 18.9682 5.19415 19.0925 4.70906C19.3563 5.7225 19.6866 6.71744 20.0813 7.68741C20.4934 8.49969 21.0113 9.3002 21.8354 9.19425C22.8713 9.05298 23.46 8.22893 23.4717 6.83982C23.3093 5.44078 23.3809 4.02446 23.6836 2.64893C27.3094 2.40172 26.25 2.95501 29.2401 3.28463C30.7351 3.44944 32.5245 3.47298 33.5016 3.56716C34.3633 3.57156 35.2098 3.79432 35.962 4.21463C36.6349 4.73165 37.2091 5.36571 37.6572 6.0864C37.8623 6.4637 38.0356 6.85747 38.1751 7.26362C38.3075 7.53826 38.5273 7.76122 38.7999 7.89757C39.0726 8.03391 39.3829 8.07593 39.682 8.01703C40.9416 7.92286 40.8592 6.42779 41.0005 5.81564C41.1417 5.20349 40.8592 3.46121 41.4007 2.88438C41.9422 2.30754 42.7427 2.47235 43.4608 2.284C44.1789 2.09564 44.8382 1.56589 45.5327 1.38931C45.3305 1.30613 45.1155 1.25834 44.897 1.24805Z" fill="black"/>
<path fill-rule="evenodd" clip-rule="evenodd" d="M44.897 1.24805H5.75464C5.25509 1.24805 4.776 1.44649 4.42277 1.79972C4.06954 2.15296 3.87109 2.63204 3.87109 3.13159V4.15577C5.16603 3.53184 6.62578 2.71957 6.81413 3.46121L7.39097 5.81564C7.39097 5.94514 7.77945 7.53438 8.99198 7.53438C10.2045 7.53438 10.6048 6.14526 10.6519 5.88627L11.0521 3.53184C12.0069 3.92579 13.0223 4.15276 14.054 4.20286C14.7973 4.15059 15.5321 4.01233 16.2436 3.79083C16.2436 3.79083 16.1494 4.96805 16.5262 5.28589C16.7484 5.49179 17.0224 5.6334 17.319 5.69561C17.6155 5.75782 17.9233 5.73827 18.2096 5.63906C18.6162 5.40612 18.9192 5.02742 19.0572 4.57957C19.3214 5.53912 19.6518 6.47922 20.046 7.39311C20.4581 8.17007 20.976 8.92349 21.8001 8.81754C22.836 8.68805 23.4246 7.91109 23.4364 6.60438C23.2741 5.28369 23.3459 3.94473 23.6483 2.64893C27.2741 2.41349 26.2146 2.93146 29.2048 3.24931C30.6998 3.40235 32.4892 3.4259 33.4663 3.5083C34.3243 3.50685 35.1694 3.71711 35.9267 4.12045C36.6065 4.59844 37.193 5.19693 37.6572 5.88627C37.8583 6.23296 38.0315 6.59512 38.1751 6.96931C38.3142 7.23699 38.536 7.45262 38.8075 7.58413C39.079 7.71563 39.3857 7.75599 39.682 7.69919C40.9416 7.60501 40.8592 6.18058 41.0005 5.60374C41.1417 5.02691 40.8592 3.35526 41.4007 2.83729C41.9422 2.31931 42.7427 2.44881 43.4608 2.26045C44.1789 2.0721 44.8382 1.58944 45.521 1.42463C45.3251 1.32923 45.1138 1.26943 44.897 1.24805Z" fill="#F7A720"/>
<path fill-rule="evenodd" clip-rule="evenodd" d="M29.276 6.00393C28.9251 6.03607 28.5989 6.19817 28.3614 6.45844C28.1239 6.71871 27.9922 7.05835 27.9922 7.41071C27.9922 7.76306 28.1239 8.1027 28.3614 8.36297C28.5989 8.62324 28.9251 8.78535 29.276 8.81748C29.4716 8.83539 29.6687 8.81232 29.8549 8.74977C30.041 8.68721 30.2121 8.58653 30.3571 8.45416C30.5022 8.32178 30.618 8.16062 30.6973 7.98096C30.7766 7.8013 30.8175 7.60708 30.8175 7.41071C30.8175 7.21433 30.7766 7.02012 30.6973 6.84045C30.618 6.66079 30.5022 6.49963 30.3571 6.36725C30.2121 6.23488 30.041 6.1342 29.8549 6.07164C29.6687 6.00909 29.4716 5.98603 29.276 6.00393Z" fill="#F7A720"/>
<path opacity="0.2" fill-rule="evenodd" clip-rule="evenodd" d="M29.276 6.00393C28.9251 6.03607 28.5989 6.19817 28.3614 6.45844C28.1239 6.71871 27.9922 7.05835 27.9922 7.41071C27.9922 7.76306 28.1239 8.1027 28.3614 8.36297C28.5989 8.62324 28.9251 8.78535 29.276 8.81748C29.4716 8.83539 29.6687 8.81232 29.8549 8.74977C30.041 8.68721 30.2121 8.58653 30.3571 8.45416C30.5022 8.32178 30.618 8.16062 30.6973 7.98096C30.7766 7.8013 30.8175 7.60708 30.8175 7.41071C30.8175 7.21433 30.7766 7.02012 30.6973 6.84045C30.618 6.66079 30.5022 6.49963 30.3571 6.36725C30.2121 6.23488 30.041 6.1342 29.8549 6.07164C29.6687 6.00909 29.4716 5.98603 29.276 6.00393Z" fill="black"/>
<path fill-rule="evenodd" clip-rule="evenodd" d="M29.2759 6.00399C28.9249 5.98468 28.5805 6.10509 28.318 6.33891C28.0555 6.57273 27.8962 6.90094 27.875 7.25183C27.9071 7.60272 28.0692 7.92894 28.3295 8.16646C28.5898 8.40399 28.9294 8.53567 29.2818 8.53567C29.6341 8.53567 29.9738 8.40399 30.234 8.16646C30.4943 7.92894 30.6564 7.60272 30.6885 7.25183C30.6643 6.89992 30.5025 6.5717 30.2382 6.33817C29.9738 6.10464 29.6281 5.98459 29.2759 6.00399Z" fill="#F7A720"/>
</svg>
