<svg width="55" height="55" viewBox="0 0 55 55" fill="none" xmlns="http://www.w3.org/2000/svg">
<path d="M10.6991 48.5952L8.13281 47.418L25.6145 10.5947C26.7684 8.21733 28.566 6.2113 30.803 4.80455C33.0401 3.3978 35.6269 2.64675 38.2695 2.63672H44.1556C46.5556 2.63984 48.8563 3.59461 50.5534 5.29166C52.2505 6.98871 53.2053 9.28951 53.2084 11.6895V20.7894C53.1163 22.4832 52.369 24.0746 51.1247 25.2275C50.6951 25.6673 50.18 26.0143 49.611 26.2472C49.0421 26.48 48.4314 26.5938 47.8167 26.5813L47.9933 23.7442C48.4456 23.7024 48.8657 23.4923 49.1705 23.1556C49.8359 22.5398 50.2544 21.7029 50.3477 20.8012V11.6895C50.3477 10.0441 49.6942 8.46612 48.5307 7.30267C47.3672 6.1392 45.7892 5.48558 44.1438 5.48558H38.2577C36.1474 5.49076 34.0812 6.09112 32.2966 7.21768C30.512 8.34422 29.0814 9.9513 28.169 11.8543L10.6991 48.5952Z" fill="#666666"/>
<path opacity="0.46" d="M8.76819 49.0907L8.20312 48.8199L12.4294 39.9437C12.4666 39.3266 12.6352 38.7246 12.9238 38.1779C13.1807 37.6208 13.5355 37.1144 13.9715 36.6828L23.4481 16.7644C23.5106 16.134 23.6861 15.5198 23.9661 14.9514C24.2414 14.4235 24.5991 13.9427 25.0256 13.527L26.297 10.8665C27.3804 8.60025 29.0803 6.68494 31.2018 5.33997C33.3234 3.99501 35.7808 3.27475 38.2928 3.26172H44.3672C46.5527 3.26172 48.6488 4.12992 50.1941 5.6753C51.7395 7.22071 52.6077 9.3167 52.6077 11.5022V20.9199C52.5106 22.3479 51.8754 23.6858 50.8301 24.6635C50.4994 25.0071 50.1026 25.2802 49.6636 25.4664C49.2245 25.6526 48.7523 25.7478 48.2756 25.7465V25.1226C48.6668 25.1176 49.053 25.0337 49.411 24.876C49.769 24.7182 50.0915 24.4897 50.3592 24.2044C51.2892 23.353 51.858 22.1777 51.9485 20.9199V11.5022C51.9453 9.49563 51.1468 7.5721 49.7279 6.15322C48.3091 4.73434 46.3856 3.93584 44.379 3.93273H38.2928C35.894 3.93863 33.5456 4.62112 31.5173 5.9018C29.4891 7.18248 27.8633 9.00939 26.8267 11.1726L25.5082 13.939C25.1207 14.3075 24.8018 14.742 24.5665 15.2222C24.3105 15.7292 24.1547 16.2809 24.1073 16.8468V16.9174V16.9763L14.4895 37.0713C14.0922 37.4565 13.7689 37.9114 13.536 38.4133C13.2519 38.9061 13.0867 39.4584 13.0533 40.0261V40.0968L8.76819 49.0907Z" fill="#CCCCCC"/>
<path d="M11.0712 37.3015L11.0662 37.3122C10.6607 38.1777 11.0337 39.2079 11.8992 39.6133L14.4471 40.8069C15.3126 41.2123 16.3428 40.8393 16.7482 39.9739L16.7532 39.9632C17.1587 39.0977 16.7856 38.0674 15.9203 37.662L13.3723 36.4685C12.5068 36.0631 11.4766 36.436 11.0712 37.3015Z" fill="#666666"/>
<path d="M22.1219 14.1472L22.117 14.1578C21.7115 15.0233 22.0845 16.0536 22.95 16.459L25.4978 17.6525C26.3633 18.0579 27.3936 17.685 27.799 16.8195L27.804 16.8089C28.2094 15.9434 27.8365 14.9131 26.971 14.5077L24.4231 13.3142C23.5576 12.9088 22.5273 13.2817 22.1219 14.1472Z" fill="#666666"/>
<path fill-rule="evenodd" clip-rule="evenodd" d="M48.1825 19.7891V48.6428H28.8998C28.649 48.667 28.396 48.6395 28.1563 48.5619C27.9168 48.4842 27.6957 48.3581 27.5069 48.1914C27.3181 48.0247 27.1656 47.821 27.0589 47.5927C26.9522 47.3646 26.8935 47.1169 26.8867 46.8652C26.8867 17.4348 44.027 19.6832 48.1825 19.7891Z" fill="#F7A720"/>
<path opacity="0.2" fill-rule="evenodd" clip-rule="evenodd" d="M48.1825 19.7891V48.6428H28.8998C28.649 48.667 28.396 48.6395 28.1563 48.5619C27.9168 48.4842 27.6957 48.3581 27.5069 48.1914C27.3181 48.0247 27.1656 47.821 27.0589 47.5927C26.9522 47.3646 26.8935 47.1169 26.8867 46.8652C26.8867 17.4348 44.027 19.6832 48.1825 19.7891Z" fill="black"/>
<path fill-rule="evenodd" clip-rule="evenodd" d="M48.1846 19.7889V48.0421H30.9149C30.6805 48.0568 30.4456 48.0227 30.2251 47.9419C30.0046 47.8611 29.8033 47.7353 29.634 47.5726C29.4646 47.41 29.3309 47.2138 29.2414 46.9967C29.1519 46.7797 29.1084 46.5463 29.1137 46.3116C29.1137 17.4816 44.4175 19.7301 48.1846 19.836V19.7889Z" fill="#F7A720"/>
<path fill-rule="evenodd" clip-rule="evenodd" d="M44.273 37.8485C45.6281 37.8275 46.9588 38.2095 48.0964 38.9461C49.2339 39.6828 50.1269 40.7407 50.6622 41.9857C51.1975 43.2307 51.3509 44.6067 51.1028 45.939C50.8548 47.2714 50.2166 48.4999 49.2691 49.469C48.3217 50.438 47.1077 51.1037 45.7814 51.3815C44.4549 51.6594 43.0759 51.537 41.8191 51.0299C40.5624 50.5227 39.4847 49.6536 38.7227 48.5329C37.9606 47.4122 37.5489 46.0904 37.5393 44.7352C37.5316 43.8437 37.6997 42.9595 38.034 42.1331C38.3683 41.3067 38.8624 40.5543 39.4878 39.919C40.1133 39.2837 40.8579 38.778 41.6789 38.4308C42.5 38.0836 43.3815 37.9017 44.273 37.8956V37.8485Z" fill="#666666"/>
<path opacity="0.2" fill-rule="evenodd" clip-rule="evenodd" d="M44.273 37.8485C45.6281 37.8275 46.9588 38.2095 48.0964 38.9461C49.2339 39.6828 50.1269 40.7407 50.6622 41.9857C51.1975 43.2307 51.3509 44.6067 51.1028 45.939C50.8548 47.2714 50.2166 48.4999 49.2691 49.469C48.3217 50.438 47.1077 51.1037 45.7814 51.3815C44.4549 51.6594 43.0759 51.537 41.8191 51.0299C40.5624 50.5227 39.4847 49.6536 38.7227 48.5329C37.9606 47.4122 37.5489 46.0904 37.5393 44.7352C37.5316 43.8437 37.6997 42.9595 38.034 42.1331C38.3683 41.3067 38.8624 40.5543 39.4878 39.919C40.1133 39.2837 40.8579 38.778 41.6789 38.4308C42.5 38.0836 43.3815 37.9017 44.273 37.8956V37.8485Z" fill="black"/>
<path fill-rule="evenodd" clip-rule="evenodd" d="M44.5703 37.9766C45.9252 37.906 47.2702 38.2434 48.4314 38.9452C49.5925 39.6472 50.5162 40.6813 51.0834 41.9138C51.6506 43.1464 51.8349 44.5206 51.6126 45.8591C51.3903 47.1975 50.7717 48.4385 49.8365 49.4216C48.9014 50.4046 47.6929 51.0846 46.3672 51.3734C45.0416 51.6623 43.6598 51.5468 42.4004 51.0421C41.1411 50.5373 40.0621 49.6662 39.3031 48.5417C38.5441 47.4171 38.1398 46.0906 38.1427 44.7338C38.0985 42.9841 38.7505 41.2884 39.9558 40.0192C41.1609 38.7499 42.8206 38.0111 44.5703 37.9648V37.9766Z" fill="#666666"/>
<path fill-rule="evenodd" clip-rule="evenodd" d="M44.2728 41.3792C44.927 41.3701 45.5693 41.555 46.1183 41.9107C46.6674 42.2664 47.0986 42.7769 47.3574 43.3778C47.6164 43.9786 47.6913 44.6427 47.5729 45.2861C47.4543 45.9295 47.1477 46.5233 46.6917 46.9924C46.2358 47.4617 45.651 47.7851 45.0111 47.9218C44.3713 48.0585 43.7054 48.0026 43.0975 47.7609C42.4895 47.5191 41.9669 47.1026 41.5957 46.5639C41.2245 46.0252 41.0213 45.3885 41.0119 44.7343C41.0073 44.3026 41.0881 43.8742 41.2497 43.4739C41.4113 43.0735 41.6507 42.709 41.9538 42.4015C42.2569 42.094 42.6179 41.8495 43.0159 41.6822C43.4139 41.5148 43.8411 41.4279 44.2728 41.4263V41.3792Z" fill="#CCCCCC"/>
<path opacity="0.3" fill-rule="evenodd" clip-rule="evenodd" d="M44.2728 41.3792C44.927 41.3701 45.5693 41.555 46.1183 41.9107C46.6674 42.2664 47.0986 42.7769 47.3574 43.3778C47.6164 43.9786 47.6913 44.6427 47.5729 45.2861C47.4543 45.9295 47.1477 46.5233 46.6917 46.9924C46.2358 47.4617 45.651 47.7851 45.0111 47.9218C44.3713 48.0585 43.7054 48.0026 43.0975 47.7609C42.4895 47.5191 41.9669 47.1026 41.5957 46.5639C41.2245 46.0252 41.0213 45.3885 41.0119 44.7343C41.0073 44.3026 41.0881 43.8742 41.2497 43.4739C41.4113 43.0735 41.6507 42.709 41.9538 42.4015C42.2569 42.094 42.6179 41.8495 43.0159 41.6822C43.4139 41.5148 43.8411 41.4279 44.2728 41.4263V41.3792Z" fill="black"/>
<path fill-rule="evenodd" clip-rule="evenodd" d="M44.096 41.3793C44.7178 41.3698 45.3282 41.5458 45.8496 41.8848C46.371 42.2236 46.7796 42.71 47.0235 43.282C47.2675 43.854 47.3355 44.4857 47.2191 45.0964C47.1028 45.7073 46.8071 46.2696 46.37 46.7118C45.9327 47.154 45.3738 47.4561 44.7643 47.5794C44.1549 47.7028 43.5225 47.6419 42.9478 47.4045C42.373 47.1672 41.8819 46.7641 41.5371 46.2466C41.1923 45.7291 41.0095 45.1207 41.0117 44.4989C41.0086 43.6766 41.3315 42.8867 41.9095 42.302C42.4876 41.7172 43.2739 41.3854 44.096 41.3793Z" fill="#CCCCCC"/>
<path d="M3.04975 46.5703C2.22405 46.5703 1.55469 47.2397 1.55469 48.0654C1.55469 48.8911 2.22405 49.5604 3.04975 49.5604H12.4087C13.2344 49.5604 13.9037 48.8911 13.9037 48.0654C13.9037 47.2397 13.2344 46.5703 12.4087 46.5703H3.04975Z" fill="#666666"/>
<path opacity="0.4" d="M2.12891 48.0536V48.089C2.12891 48.6741 2.60325 49.1484 3.1884 49.1484H12.2647C12.8498 49.1484 13.3242 48.6741 13.3242 48.089V48.0536C13.3242 47.4684 12.8498 46.9941 12.2647 46.9941H3.1884C2.60325 46.9941 2.12891 47.4684 2.12891 48.0536Z" fill="#CCCCCC"/>
<path d="M2.58984 48.0422V48.101C2.58984 48.4782 2.89553 48.7838 3.27263 48.7838H12.1841C12.5613 48.7838 12.8669 48.4782 12.8669 48.101V48.0422C12.8669 47.6651 12.5613 47.3594 12.1841 47.3594H3.27263C2.89553 47.3594 2.58984 47.6651 2.58984 48.0422Z" fill="#666666"/>
</svg>
