<svg width="55" height="55" viewBox="0 0 55 55" fill="none" xmlns="http://www.w3.org/2000/svg">
<path d="M38.5185 52.9045C37.8209 52.904 37.1381 52.7028 36.5516 52.325C35.9651 51.9471 35.4995 51.4087 35.2105 50.7737L14.9624 6.53398C14.7649 6.11681 14.6536 5.66401 14.6355 5.20277C14.6172 4.74153 14.6925 4.28138 14.8565 3.84993C15.1027 3.20163 15.5344 2.64016 16.0976 2.23558C16.6609 1.83098 17.3307 1.60118 18.0237 1.57482C18.7168 1.54845 19.4022 1.7267 19.9945 2.08732C20.5869 2.44795 21.0599 2.97499 21.3547 3.60271L27.4173 16.8464C27.4979 17.0459 27.4983 17.2686 27.4186 17.4684C27.3391 17.6682 27.1854 17.8296 26.9899 17.919C26.7942 18.0085 26.5717 18.0191 26.3686 17.9487C26.1654 17.8783 25.997 17.7322 25.8987 17.5409L19.8361 4.29727C19.7318 4.07697 19.5851 3.87938 19.4044 3.71579C19.2237 3.5522 19.0125 3.4258 18.7829 3.34381C18.3192 3.17823 17.8089 3.20362 17.3639 3.41436C16.919 3.62511 16.5761 4.00396 16.4105 4.46758C16.245 4.93119 16.2703 5.4416 16.481 5.88651L36.7291 50.0791C36.8359 50.3155 36.9883 50.5285 37.1776 50.7057C37.367 50.8828 37.5895 51.0208 37.8325 51.1117C38.0754 51.2024 38.3339 51.2444 38.5931 51.2348C38.8522 51.2253 39.107 51.1646 39.3425 51.0562L47.7949 47.1832C47.8521 47.1569 47.9036 47.1194 47.946 47.0729C47.9885 47.0264 48.0212 46.9718 48.0421 46.9124C48.079 46.8237 48.0877 46.7256 48.0671 46.6318C48.0466 46.5378 47.9978 46.4524 47.9273 46.387C47.8569 46.3217 47.768 46.2794 47.6727 46.266C47.5776 46.2526 47.4805 46.2687 47.3947 46.3121L42.4621 48.5723C41.9515 48.765 41.3868 48.7567 40.882 48.549C40.3772 48.3413 39.9701 47.9498 39.7429 47.4535C39.5157 46.9573 39.4853 46.3933 39.6579 45.8754C39.8305 45.3576 40.1933 44.9246 40.6728 44.664L45.6053 42.3802C45.7345 42.3452 45.8445 42.2605 45.9114 42.1447C45.958 42.0276 45.958 41.897 45.9114 41.7798C45.8861 41.7219 45.8492 41.6696 45.8032 41.6261C45.7573 41.5827 45.7029 41.549 45.6436 41.527C45.5842 41.505 45.5211 41.4952 45.4579 41.4982C45.3947 41.5012 45.3328 41.5169 45.2757 41.5443L40.2843 43.7928C39.7564 44.01 39.1642 44.01 38.6362 43.7928C38.3697 43.688 38.1275 43.5295 37.9249 43.3269C37.7224 43.1244 37.5638 42.8822 37.459 42.6156C37.3409 42.36 37.2745 42.0835 37.2639 41.802C37.2532 41.5207 37.2985 41.2399 37.3971 40.9761C37.4956 40.7123 37.6453 40.4706 37.8379 40.2651C38.0304 40.0595 38.2617 39.8941 38.5185 39.7785L43.4157 37.6713C43.4734 37.6456 43.5251 37.6083 43.5676 37.5617C43.6101 37.5151 43.6425 37.4602 43.6629 37.4005C43.6894 37.3433 43.703 37.2811 43.703 37.2181C43.703 37.1551 43.6894 37.0928 43.6629 37.0356C43.6092 36.9207 43.5123 36.8316 43.3934 36.7876C43.2744 36.7434 43.1429 36.748 43.0272 36.8002L38.1065 39.0604C37.847 39.2014 37.5613 39.2876 37.2671 39.3136C36.9729 39.3395 36.6765 39.3048 36.3964 39.2113C36.1163 39.118 35.8582 38.968 35.6384 38.7707C35.4188 38.5734 35.2418 38.333 35.1189 38.0645C34.996 37.796 34.9296 37.505 34.9239 37.2097C34.9181 36.9145 34.9731 36.6211 35.0854 36.348C35.1978 36.0749 35.3651 35.8278 35.577 35.622C35.7889 35.4163 36.0408 35.2564 36.3171 35.1521L41.2025 32.8565C41.3152 32.805 41.4036 32.7124 41.4497 32.5975C41.4971 32.4764 41.4971 32.3419 41.4497 32.2208C41.3938 32.108 41.2968 32.0208 41.1786 31.977C41.0606 31.9332 40.9301 31.9363 40.814 31.9853L35.9051 34.2456C35.3884 34.481 34.7993 34.5016 34.2673 34.3031C33.7353 34.1043 33.304 33.7027 33.068 33.1861C32.9406 32.9348 32.8655 32.6601 32.8474 32.3788C32.8291 32.0975 32.8682 31.8155 32.962 31.5498C33.1692 31.0279 33.5698 30.6061 34.0804 30.3726L39.0129 28.1241C39.1263 28.0679 39.2144 27.9713 39.2601 27.8533C39.3067 27.7362 39.3067 27.6056 39.2601 27.4884C39.2348 27.4305 39.198 27.3782 39.1519 27.3348C39.106 27.2913 39.0516 27.2577 38.9923 27.2356C38.933 27.2136 38.8699 27.2039 38.8067 27.2068C38.7434 27.2099 38.6815 27.2255 38.6244 27.2529L33.7272 29.4308C33.2105 29.6681 32.6207 29.6904 32.0876 29.4928C31.5544 29.2952 31.1216 28.8939 30.8842 28.3772C30.647 27.8605 30.6247 27.2707 30.8223 26.7376C31.0199 26.2044 31.4212 25.7715 31.9378 25.5342L36.8586 23.274C36.9179 23.251 36.9711 23.2146 37.014 23.1677C37.057 23.1207 37.0884 23.0644 37.1058 23.0032C37.1283 22.9446 37.1388 22.8819 37.1367 22.8192C37.1347 22.7563 37.1199 22.6946 37.0936 22.6376C37.0673 22.5806 37.0298 22.5294 36.9834 22.487C36.937 22.4446 36.8825 22.412 36.8233 22.391C36.7062 22.3445 36.5756 22.3445 36.4583 22.391L31.5376 24.7219C31.0191 24.9578 30.4284 24.9788 29.8946 24.7803C29.3607 24.5817 28.9271 24.1798 28.6887 23.6624L27.1937 20.378C27.1018 20.1766 27.0936 19.947 27.1708 19.7395C27.2482 19.5321 27.4045 19.3637 27.6057 19.2714C27.8071 19.1796 28.0368 19.1714 28.2442 19.2486C28.4518 19.3258 28.6201 19.4823 28.7123 19.6834L30.2073 22.9443C30.2611 23.0592 30.358 23.1483 30.4769 23.1925C30.5959 23.2365 30.7274 23.2319 30.843 23.1798L35.7638 20.9195C36.0234 20.7785 36.3091 20.6923 36.6033 20.6663C36.8975 20.6404 37.1938 20.6751 37.4739 20.7686C37.7541 20.862 38.0122 21.0121 38.2318 21.2094C38.4516 21.4067 38.6284 21.647 38.7514 21.9156C38.8743 22.1841 38.9407 22.475 38.9465 22.7702C38.9523 23.0656 38.8973 23.3588 38.7849 23.6319C38.6726 23.9051 38.5052 24.1522 38.2934 24.3579C38.0815 24.5637 37.8296 24.7236 37.5532 24.8279L32.6324 27.0764C32.5748 27.1005 32.5229 27.1362 32.4795 27.181C32.4362 27.226 32.4025 27.2793 32.3805 27.3377C32.3585 27.3961 32.3486 27.4584 32.3514 27.5206C32.3542 27.583 32.3698 27.6441 32.397 27.7003C32.4486 27.8173 32.5446 27.9091 32.6637 27.9554C32.7829 28.0018 32.9156 27.9989 33.0327 27.9475L37.9534 25.6872C38.3392 25.5083 38.7693 25.4483 39.1893 25.5146C39.6092 25.5809 39.9999 25.7707 40.3117 26.0597C40.6235 26.3487 40.8422 26.724 40.94 27.1378C41.038 27.5515 41.0104 27.9851 40.8611 28.3831C40.6402 28.9159 40.2168 29.3393 39.6839 29.5603L34.7514 31.8088C34.6505 31.8703 34.5757 31.9669 34.5413 32.08C34.5068 32.193 34.5149 32.3148 34.5643 32.4223C34.6137 32.5297 34.7008 32.6153 34.809 32.6628C34.9173 32.7103 35.0392 32.7164 35.1516 32.6799L40.0842 30.4314C40.3392 30.3129 40.615 30.246 40.8959 30.2345C41.1767 30.2231 41.4572 30.2673 41.7209 30.3647C41.9846 30.462 42.2265 30.6107 42.4325 30.802C42.6385 30.9932 42.8046 31.2233 42.9213 31.4791C43.1613 31.9977 43.1867 32.5901 42.9919 33.1272C42.8865 33.3935 42.7277 33.6353 42.5252 33.8378C42.3228 34.0403 42.081 34.1991 41.8147 34.3045L36.8939 36.5647C36.779 36.6185 36.6899 36.7153 36.6459 36.8343C36.6019 36.9533 36.6063 37.0848 36.6585 37.2004C36.7147 37.3138 36.8113 37.402 36.9292 37.4476C37.0465 37.4941 37.177 37.4941 37.2942 37.4476L42.3797 35.2462C42.6393 35.1052 42.925 35.019 43.2192 34.993C43.5134 34.9671 43.8097 35.0018 44.0899 35.0953C44.3701 35.1887 44.6281 35.3388 44.8478 35.5361C45.0676 35.7334 45.2444 35.9738 45.3674 36.2423C45.4903 36.5108 45.5567 36.8017 45.5625 37.0969C45.5682 37.3923 45.5133 37.6855 45.4008 37.9587C45.2885 38.2318 45.1211 38.4789 44.9093 38.6846C44.6974 38.8904 44.4455 39.0503 44.1691 39.1546L39.2483 41.4031C39.1908 41.4288 39.1391 41.4662 39.0966 41.5127C39.0541 41.5593 39.0216 41.6141 39.0011 41.6738C38.9748 41.731 38.9611 41.7933 38.9611 41.8563C38.9611 41.9193 38.9748 41.9815 39.0011 42.0388C39.0242 42.0981 39.0606 42.1513 39.1076 42.1942C39.1545 42.237 39.2108 42.2684 39.2719 42.286C39.3291 42.3123 39.3914 42.3261 39.4544 42.3261C39.5175 42.3261 39.5796 42.3123 39.6368 42.286L44.5105 40.0257C44.8963 39.8468 45.3264 39.7868 45.7463 39.853C46.1663 39.9194 46.557 40.1092 46.8688 40.3982C47.1805 40.6872 47.3993 41.0625 47.4971 41.4763C47.595 41.89 47.5675 42.3235 47.4182 42.7215C47.3117 42.9871 47.1524 43.2283 46.9502 43.4306C46.7478 43.6329 46.5066 43.7922 46.241 43.8988L41.3085 46.159C41.1936 46.2128 41.1045 46.3096 41.0604 46.4286C41.0164 46.5476 41.0209 46.6791 41.073 46.7947C41.1293 46.9081 41.2258 46.9963 41.3438 47.0419C41.461 47.0884 41.5916 47.0884 41.7087 47.0419L46.6413 44.7817C47.1585 44.5495 47.7463 44.5305 48.2775 44.7288C48.8085 44.9272 49.2401 45.3268 49.4784 45.8412C49.6004 46.097 49.6695 46.3748 49.6817 46.658C49.6938 46.9413 49.6487 47.2239 49.549 47.4893C49.4407 47.7538 49.2808 47.9941 49.0787 48.1962C48.8767 48.3983 48.6363 48.5582 48.3718 48.6665L40.0253 52.5748C39.5535 52.7944 39.0389 52.9069 38.5185 52.9045Z" fill="#666666"/>
<g opacity="0.3">
<path opacity="0.3" d="M26.299 27.3118L16.481 5.88651C16.3798 5.66544 16.323 5.42659 16.3141 5.1836C16.3051 4.94061 16.3442 4.69823 16.4289 4.47031C16.5136 4.24239 16.6424 4.03339 16.8079 3.85524C16.9733 3.67708 17.1724 3.53327 17.3934 3.43202C17.6144 3.33075 17.8533 3.27404 18.0963 3.26508C18.3394 3.25613 18.5816 3.29512 18.8097 3.37984C19.0376 3.46456 19.2465 3.59334 19.4246 3.75884C19.6029 3.92433 19.7466 4.12329 19.8478 4.34436L25.8987 17.5409C25.997 17.7322 26.1654 17.8783 26.3686 17.9487C26.5717 18.0191 26.7942 18.0085 26.9899 17.919C27.1854 17.8296 27.3391 17.6682 27.4186 17.4684C27.4983 17.2686 27.4979 17.0459 27.4173 16.8464L21.3547 3.60272C21.0599 2.97499 20.5869 2.44795 19.9945 2.08732C19.4022 1.7267 18.7168 1.54845 18.0237 1.57482C17.3307 1.60118 16.6609 1.83098 16.0976 2.23558C15.5344 2.64016 15.1027 3.20163 14.8565 3.84993C14.6925 4.28138 14.6172 4.74153 14.6355 5.20277C14.6536 5.66401 14.7649 6.11681 14.9624 6.53398L25.2159 28.901L26.299 27.3118Z" fill="black"/>
<path opacity="0.3" d="M27.6046 19.2717C27.4033 19.364 27.247 19.5324 27.1697 19.7398C27.0925 19.9473 27.1006 20.1769 27.1926 20.3783L28.6876 23.6392L29.7707 22.0146L28.6759 19.6602C28.5796 19.472 28.4155 19.3272 28.2166 19.2551C28.0179 19.1831 27.7992 19.189 27.6046 19.2717Z" fill="black"/>
</g>
<path fill-rule="evenodd" clip-rule="evenodd" d="M37.9993 1.24805C29.4292 19.2124 21.1887 36.7765 20.1292 39.1309C19.2842 37.9118 18.1387 36.9314 16.8038 36.2847C15.4689 35.6381 13.9897 35.3468 12.5093 35.4394C11.0288 35.532 9.59737 36.0051 8.3534 36.8129C7.10941 37.6209 6.09504 38.7363 5.40844 40.0511C4.72184 41.3659 4.38626 42.8357 4.43419 44.3183C4.48212 45.8007 4.91192 47.2459 5.682 48.5136C6.45209 49.7814 7.53639 50.8289 8.82994 51.5547C10.1235 52.2806 11.5825 52.6603 13.0659 52.6571C17.092 52.6571 19.776 49.4433 21.4241 46.1471L38.9175 8.24071L37.9993 1.24805ZM13.0423 50.0437C11.785 50.0437 10.556 49.6708 9.51056 48.9723C8.46517 48.2737 7.65039 47.281 7.16923 46.1193C6.6881 44.9577 6.5622 43.6796 6.80749 42.4465C7.05277 41.2134 7.65822 40.0807 8.54726 39.1916C9.43629 38.3026 10.569 37.6972 11.8022 37.4518C13.0353 37.2066 14.3134 37.3325 15.4751 37.8136C16.6366 38.2947 17.6294 39.1096 18.3279 40.1549C19.0265 41.2003 19.3993 42.4293 19.3993 43.6867C19.3993 45.3726 18.7295 46.9895 17.5373 48.1817C16.3451 49.3738 14.7282 50.0437 13.0423 50.0437Z" fill="#F7A720"/>
<path fill-rule="evenodd" clip-rule="evenodd" d="M13.0435 50.044C11.3576 50.0658 9.73198 49.417 8.52436 48.2404C7.31675 47.0636 6.62604 45.4555 6.60418 43.7694C6.58233 42.0834 7.23112 40.4578 8.40783 39.2502C9.58454 38.0426 11.1928 37.3519 12.8787 37.3301H12.7139C11.3914 37.3301 10.0987 37.7222 8.99906 38.4569C7.89946 39.1917 7.04242 40.236 6.53634 41.4577C6.03024 42.6796 5.89783 44.0241 6.15582 45.3211C6.41384 46.6182 7.05066 47.8096 7.98579 48.7448C8.92094 49.6799 10.1124 50.3168 11.4094 50.5747C12.7065 50.8327 14.051 50.7003 15.2728 50.1942C16.4946 49.6881 17.5389 48.8311 18.2736 47.7315C19.0083 46.632 19.4005 45.3391 19.4005 44.0167V43.8518C19.3575 45.5091 18.6688 47.084 17.4813 48.2407C16.2938 49.3975 14.7014 50.0446 13.0435 50.044Z" fill="#666666"/>
<path d="M28.5102 26.663C28.8029 26.663 29.04 26.4258 29.04 26.1333C29.04 25.8407 28.8029 25.6035 28.5102 25.6035C28.2177 25.6035 27.9805 25.8407 27.9805 26.1333C27.9805 26.4258 28.2177 26.663 28.5102 26.663Z" fill="#FEFEFE" stroke="#FEFEFE" stroke-width="0.0824051" stroke-miterlimit="22.93"/>
<path opacity="0.2" fill-rule="evenodd" clip-rule="evenodd" d="M38 1.24805L28.5234 21.2607V30.7609L38.9183 8.25248L38 1.24805Z" fill="black"/>
</svg>
