<svg width="54" height="53" viewBox="0 0 54 53" fill="none" xmlns="http://www.w3.org/2000/svg">
<path d="M26.8362 33.27C31.9816 33.27 36.1528 29.0988 36.1528 23.9533C36.1528 18.8079 31.9816 14.6367 26.8362 14.6367C21.6908 14.6367 17.5195 18.8079 17.5195 23.9533C17.5195 29.0988 21.6908 33.27 26.8362 33.27Z" fill="#666666"/>
<path d="M13.3509 33.7779C14.4766 33.7779 15.3892 32.8653 15.3892 31.7395C15.3892 30.6137 14.4766 29.7012 13.3509 29.7012C12.2251 29.7012 11.3125 30.6137 11.3125 31.7395C11.3125 32.8653 12.2251 33.7779 13.3509 33.7779Z" fill="#666666"/>
<path d="M26.3475 23.1133L13.9805 30.2534L14.9421 31.919L27.309 24.7789L26.3475 23.1133Z" fill="#666666"/>
<path d="M19.0501 12.5064C20.1758 12.5064 21.0884 11.5938 21.0884 10.4681C21.0884 9.3423 20.1758 8.42969 19.0501 8.42969C17.9243 8.42969 17.0117 9.3423 17.0117 10.4681C17.0117 11.5938 17.9243 12.5064 19.0501 12.5064Z" fill="#666666"/>
<path d="M20.5172 11.1055L18.8516 12.0671L25.9917 24.4341L27.6573 23.4724L20.5172 11.1055Z" fill="#666666"/>
<path d="M40.3196 18.2076C41.4454 18.2076 42.3581 17.295 42.3581 16.1692C42.3581 15.0434 41.4454 14.1309 40.3196 14.1309C39.1939 14.1309 38.2812 15.0434 38.2812 16.1692C38.2812 17.295 39.1939 18.2076 40.3196 18.2076Z" fill="#666666"/>
<path d="M38.7225 15.9844L26.3555 23.1244L27.3171 24.7899L39.684 17.6499L38.7225 15.9844Z" fill="#666666"/>
<path d="M34.6204 39.4771C35.7462 39.4771 36.6587 38.5645 36.6587 37.4387C36.6587 36.313 35.7462 35.4004 34.6204 35.4004C33.4946 35.4004 32.582 36.313 32.582 37.4387C32.582 38.5645 33.4946 39.4771 34.6204 39.4771Z" fill="#666666"/>
<path d="M27.6695 23.4746L26.0039 24.4363L33.1441 36.8032L34.8096 35.8416L27.6695 23.4746Z" fill="#666666"/>
<path d="M13.3509 33.7779C14.4766 33.7779 15.3892 32.8653 15.3892 31.7395C15.3892 30.6137 14.4766 29.7012 13.3509 29.7012C12.2251 29.7012 11.3125 30.6137 11.3125 31.7395C11.3125 32.8653 12.2251 33.7779 13.3509 33.7779Z" fill="#666666"/>
<path d="M26.3475 23.1133L13.9805 30.2534L14.9421 31.919L27.309 24.7789L26.3475 23.1133Z" fill="#666666"/>
<path d="M37.7521 31.9103C38.668 31.9103 39.4104 31.168 39.4104 30.2521C39.4104 29.3362 38.668 28.5938 37.7521 28.5938C36.8362 28.5938 36.0938 29.3362 36.0938 30.2521C36.0938 31.168 36.8362 31.9103 37.7521 31.9103Z" fill="#666666"/>
<path d="M27.2961 23.1465L26.3633 24.7622L36.3766 30.5433L37.3094 28.9277L27.2961 23.1465Z" fill="#666666"/>
<path d="M20.5255 36.5296C21.4414 36.5296 22.1839 35.7871 22.1839 34.8712C22.1839 33.9554 21.4414 33.2129 20.5255 33.2129C19.6097 33.2129 18.8672 33.9554 18.8672 34.8712C18.8672 35.7871 19.6097 36.5296 20.5255 36.5296Z" fill="#666666"/>
<path d="M26.0325 23.4785L20.2461 33.4887L21.8612 34.4225L27.6477 24.4122L26.0325 23.4785Z" fill="#666666"/>
<path d="M15.9201 19.3128C16.8359 19.3128 17.5784 18.5703 17.5784 17.6544C17.5784 16.7386 16.8359 15.9961 15.9201 15.9961C15.0042 15.9961 14.2617 16.7386 14.2617 17.6544C14.2617 18.5703 15.0042 19.3128 15.9201 19.3128Z" fill="#666666"/>
<path d="M17.2844 17.3594L16.3516 18.975L26.3648 24.7562L27.2977 23.1404L17.2844 17.3594Z" fill="#666666"/>
<path d="M33.1349 14.6937C34.0508 14.6937 34.7932 13.9512 34.7932 13.0353C34.7932 12.1195 34.0508 11.377 33.1349 11.377C32.219 11.377 31.4766 12.1195 31.4766 13.0353C31.4766 13.9512 32.219 14.6937 33.1349 14.6937Z" fill="#666666"/>
<path d="M31.8045 13.4668L26.0234 23.4801L27.639 24.4129L33.4202 14.3996L31.8045 13.4668Z" fill="#666666"/>
<path d="M37.7521 31.9103C38.668 31.9103 39.4104 31.168 39.4104 30.2521C39.4104 29.3362 38.668 28.5938 37.7521 28.5938C36.8362 28.5938 36.0938 29.3362 36.0938 30.2521C36.0938 31.168 36.8362 31.9103 37.7521 31.9103Z" fill="#666666"/>
<path d="M27.2961 23.1465L26.3633 24.7622L36.3766 30.5433L37.3094 28.9277L27.2961 23.1465Z" fill="#666666"/>
<path d="M26.836 12.2305C27.8154 12.2305 28.6095 11.4366 28.6095 10.4571C28.6095 9.47761 27.8154 8.68359 26.836 8.68359C25.8565 8.68359 25.0625 9.47761 25.0625 10.4571C25.0625 11.4366 25.8565 12.2305 26.836 12.2305Z" fill="#666666"/>
<path d="M27.666 11.5742H25.9961V23.9541H27.666V11.5742Z" fill="#666666"/>
<path d="M40.3205 25.7268C41.2999 25.7268 42.0939 24.9327 42.0939 23.9532C42.0939 22.9737 41.2999 22.1797 40.3205 22.1797C39.3409 22.1797 38.5469 22.9737 38.5469 23.9532C38.5469 24.9327 39.3409 25.7268 40.3205 25.7268Z" fill="#666666"/>
<path d="M39.2159 23.125H26.8359V24.7949H39.2159V23.125Z" fill="#666666"/>
<path d="M26.836 39.2248C27.8154 39.2248 28.6095 38.4308 28.6095 37.4512C28.6095 36.4718 27.8154 35.6777 26.836 35.6777C25.8565 35.6777 25.0625 36.4718 25.0625 37.4512C25.0625 38.4308 25.8565 39.2248 26.836 39.2248Z" fill="#666666"/>
<path d="M27.666 23.9531H25.9961V36.3331H27.666V23.9531Z" fill="#666666"/>
<path d="M13.3399 25.7268C14.3194 25.7268 15.1134 24.9327 15.1134 23.9532C15.1134 22.9737 14.3194 22.1797 13.3399 22.1797C12.3604 22.1797 11.5664 22.9737 11.5664 23.9532C11.5664 24.9327 12.3604 25.7268 13.3399 25.7268Z" fill="#666666"/>
<path d="M26.837 23.125H14.457V24.7949H26.837V23.125Z" fill="#666666"/>
<path d="M26.836 12.2305C27.8154 12.2305 28.6095 11.4366 28.6095 10.4571C28.6095 9.47761 27.8154 8.68359 26.836 8.68359C25.8565 8.68359 25.0625 9.47761 25.0625 10.4571C25.0625 11.4366 25.8565 12.2305 26.836 12.2305Z" fill="#666666"/>
<path d="M27.666 11.5742H25.9961V23.9541H27.666V11.5742Z" fill="#666666"/>
<path d="M26.7553 22.3526C27.6903 22.3526 28.4482 21.5947 28.4482 20.6597C28.4482 19.7248 27.6903 18.9668 26.7553 18.9668C25.8204 18.9668 25.0625 19.7248 25.0625 20.6597C25.0625 21.5947 25.8204 22.3526 26.7553 22.3526Z" fill="#F7A720"/>
<path opacity="0.3" d="M26.7553 22.3526C27.6903 22.3526 28.4482 21.5947 28.4482 20.6597C28.4482 19.7248 27.6903 18.9668 26.7553 18.9668C25.8204 18.9668 25.0625 19.7248 25.0625 20.6597C25.0625 21.5947 25.8204 22.3526 26.7553 22.3526Z" fill="black"/>
<path d="M26.6402 22.1223C27.5116 22.1223 28.2179 21.4159 28.2179 20.5446C28.2179 19.6732 27.5116 18.9668 26.6402 18.9668C25.7688 18.9668 25.0625 19.6732 25.0625 20.5446C25.0625 21.4159 25.7688 22.1223 26.6402 22.1223Z" fill="#F7A720"/>
<path d="M23.7749 27.5127C24.7098 27.5127 25.4678 26.7549 25.4678 25.8199C25.4678 24.8848 24.7098 24.127 23.7749 24.127C22.8399 24.127 22.082 24.8848 22.082 25.8199C22.082 26.7549 22.8399 27.5127 23.7749 27.5127Z" fill="#F7A720"/>
<path opacity="0.3" d="M23.7749 27.5127C24.7098 27.5127 25.4678 26.7549 25.4678 25.8199C25.4678 24.8848 24.7098 24.127 23.7749 24.127C22.8399 24.127 22.082 24.8848 22.082 25.8199C22.082 26.7549 22.8399 27.5127 23.7749 27.5127Z" fill="black"/>
<path d="M23.6597 27.2824C24.5311 27.2824 25.2374 26.576 25.2374 25.7047C25.2374 24.8333 24.5311 24.127 23.6597 24.127C22.7884 24.127 22.082 24.8333 22.082 25.7047C22.082 26.576 22.7884 27.2824 23.6597 27.2824Z" fill="#F7A720"/>
<path d="M29.7359 27.5127C30.6709 27.5127 31.4288 26.7549 31.4288 25.8199C31.4288 24.8848 30.6709 24.127 29.7359 24.127C28.801 24.127 28.043 24.8848 28.043 25.8199C28.043 26.7549 28.801 27.5127 29.7359 27.5127Z" fill="#F7A720"/>
<path opacity="0.3" d="M29.7359 27.5127C30.6709 27.5127 31.4288 26.7549 31.4288 25.8199C31.4288 24.8848 30.6709 24.127 29.7359 24.127C28.801 24.127 28.043 24.8848 28.043 25.8199C28.043 26.7549 28.801 27.5127 29.7359 27.5127Z" fill="black"/>
<path d="M29.6129 27.2824C30.4842 27.2824 31.1906 26.576 31.1906 25.7047C31.1906 24.8333 30.4842 24.127 29.6129 24.127C28.7415 24.127 28.0352 24.8333 28.0352 25.7047C28.0352 26.576 28.7415 27.2824 29.6129 27.2824Z" fill="#F7A720"/>
<path d="M26.0991 44.6825C21.8535 44.6825 17.7031 43.4236 14.1731 41.0648C10.643 38.706 7.89157 35.3536 6.26684 31.4311C4.64212 27.5086 4.21701 23.1925 5.04529 19.0284C5.87356 14.8644 7.91803 11.0394 10.9201 8.03733C13.9223 5.03522 17.7471 2.99076 21.9112 2.16247C26.0752 1.3342 30.3914 1.7593 34.3139 3.38404C38.2363 5.00876 41.5889 7.76015 43.9476 11.2903C46.3064 14.8203 47.5653 18.9706 47.5653 23.2162C47.5622 28.9085 45.2997 34.3668 41.2746 38.3918C37.2496 42.4169 31.7913 44.6795 26.0991 44.6825ZM26.0991 4.04175C22.3034 4.03946 18.5925 5.16306 15.4356 7.27038C12.2786 9.37769 9.81775 12.374 8.36418 15.8803C6.9106 19.3865 6.52969 23.2452 7.26961 26.968C8.00954 30.6907 9.83707 34.1104 12.521 36.7944C15.2049 39.4783 18.6245 41.3058 22.3473 42.0458C26.0702 42.7857 29.9289 42.4047 33.4351 40.9512C36.9413 39.4976 39.9377 37.0367 42.045 33.8798C44.1523 30.7229 45.2759 27.0119 45.2736 23.2162C45.2675 18.1328 43.2454 13.2591 39.6508 9.66456C36.0561 6.06996 31.1826 4.04783 26.0991 4.04175Z" fill="#F45E22"/>
<path d="M38.9264 7.32812L10.0781 35.856L11.6815 37.4773L40.5298 8.94946L38.9264 7.32812Z" fill="#F45E22"/>
<path opacity="0.2" d="M26.0991 44.6825C21.8535 44.6825 17.7031 43.4236 14.1731 41.0648C10.643 38.706 7.89157 35.3536 6.26684 31.4311C4.64212 27.5086 4.21701 23.1925 5.04529 19.0284C5.87356 14.8644 7.91803 11.0394 10.9201 8.03733C13.9223 5.03522 17.7471 2.99076 21.9112 2.16247C26.0752 1.3342 30.3914 1.7593 34.3139 3.38404C38.2363 5.00876 41.5889 7.76015 43.9476 11.2903C46.3064 14.8203 47.5653 18.9706 47.5653 23.2162C47.5622 28.9085 45.2997 34.3668 41.2746 38.3918C37.2496 42.4169 31.7913 44.6795 26.0991 44.6825ZM26.0991 4.04175C22.3034 4.03946 18.5925 5.16306 15.4356 7.27038C12.2786 9.37769 9.81775 12.374 8.36418 15.8803C6.9106 19.3865 6.52969 23.2452 7.26961 26.968C8.00954 30.6907 9.83707 34.1104 12.521 36.7944C15.2049 39.4783 18.6245 41.3058 22.3473 42.0458C26.0702 42.7857 29.9289 42.4047 33.4351 40.9512C36.9413 39.4976 39.9377 37.0367 42.045 33.8798C44.1523 30.7229 45.2759 27.0119 45.2736 23.2162C45.2675 18.1328 43.2454 13.2591 39.6508 9.66456C36.0561 6.06996 31.1826 4.04783 26.0991 4.04175Z" fill="black"/>
<path opacity="0.2" d="M38.9264 7.32812L10.0781 35.856L11.6815 37.4773L40.5298 8.94946L38.9264 7.32812Z" fill="black"/>
<path d="M26.6405 45.7654C22.2901 45.7654 18.0374 44.4754 14.4202 42.0585C10.803 39.6416 7.98372 36.2062 6.31889 32.187C4.65407 28.1677 4.21846 23.745 5.06719 19.4782C5.91591 15.2114 8.01083 11.2921 11.087 8.21593C14.1632 5.13974 18.0825 3.04482 22.3493 2.1961C26.6162 1.34737 31.0388 1.78297 35.0581 3.4478C39.0773 5.11262 42.5126 7.9319 44.9295 11.5491C47.3466 15.1663 48.6366 19.419 48.6366 23.7694C48.6304 29.6013 46.3111 35.1925 42.1873 39.3163C38.0636 43.44 32.4723 45.7594 26.6405 45.7654ZM26.6405 4.11125C22.7525 4.11125 18.9518 5.26418 15.719 7.42425C12.4863 9.58432 9.96662 12.6545 8.47874 16.2466C6.99085 19.8387 6.60155 23.7913 7.36006 27.6045C8.11858 31.4179 9.99084 34.9207 12.7401 37.67C15.4894 40.4191 18.9922 42.2915 22.8054 43.0499C26.6187 43.8084 30.5714 43.4191 34.1634 41.9312C37.7554 40.4434 40.8257 37.9238 42.9858 34.691C45.1459 31.4581 46.2987 27.6575 46.2987 23.7694C46.2927 18.5576 44.2195 13.5611 40.5343 9.87573C36.849 6.19042 31.8524 4.11734 26.6405 4.11125Z" fill="#F45E22"/>
<path d="M39.7849 7.48633L10.2109 36.7216L11.8545 38.3842L41.4284 9.1489L39.7849 7.48633Z" fill="#F45E22"/>
<path d="M43.3258 39.2246H9.95174C8.55885 39.2246 7.42969 40.3538 7.42969 41.7467V48.7025C7.42969 50.0954 8.55885 51.2246 9.95174 51.2246H43.3258C44.7187 51.2246 45.8478 50.0954 45.8478 48.7025V41.7467C45.8478 40.3538 44.7187 39.2246 43.3258 39.2246Z" fill="#E1EDFF"/>
<path d="M43.3282 51.5008H9.93105C9.56258 51.5023 9.19744 51.4311 8.85659 51.2911C8.51574 51.1511 8.20589 50.9453 7.9448 50.6852C7.68372 50.4253 7.47655 50.1163 7.33521 49.7759C7.19385 49.4357 7.12108 49.0709 7.12109 48.7024V41.7926C7.12108 41.4242 7.19385 41.0594 7.33521 40.719C7.47655 40.3788 7.68372 40.0698 7.9448 39.8097C8.20589 39.5497 8.51574 39.3438 8.85659 39.2039C9.19744 39.064 9.56258 38.9926 9.93105 38.9942H43.3282C43.6966 38.9926 44.0617 39.064 44.4026 39.2039C44.7434 39.3438 45.0533 39.5497 45.3144 39.8097C45.5755 40.0698 45.7827 40.3788 45.9239 40.719C46.0653 41.0594 46.1381 41.4242 46.1381 41.7926V48.7024C46.1381 49.0709 46.0653 49.4357 45.9239 49.7759C45.7827 50.1163 45.5755 50.4253 45.3144 50.6852C45.0533 50.9453 44.7434 51.1511 44.4026 51.2911C44.0617 51.4311 43.6966 51.5023 43.3282 51.5008ZM9.93105 39.5124C9.6382 39.511 9.34794 39.5672 9.07694 39.6782C8.80596 39.7893 8.55957 39.9528 8.35195 40.1594C8.14435 40.3659 7.9796 40.6114 7.86718 40.8818C7.75477 41.1522 7.69689 41.4422 7.69691 41.7351V48.6447C7.69994 49.2353 7.93667 49.8006 8.35532 50.2171C8.77397 50.6336 9.34051 50.8674 9.93105 50.8674H43.3282C43.9187 50.8674 44.4853 50.6336 44.9039 50.2171C45.3225 49.8006 45.5592 49.2353 45.5623 48.6447V41.7351C45.5623 41.4422 45.5044 41.1522 45.3919 40.8818C45.2795 40.6114 45.1148 40.3659 44.9072 40.1594C44.6996 39.9528 44.4532 39.7893 44.1822 39.6782C43.9113 39.5672 43.6209 39.511 43.3282 39.5124H9.93105Z" fill="#6598FD"/>
<path d="M20.9601 49.1866H19.3824L15.8238 43.7625V49.1635H14.2461V41.252H15.8238L19.3824 46.6876V41.252H20.9601V49.1866Z" fill="#6598FD"/>
<path d="M24.1519 42.5072V44.5686H26.9619V45.7202H24.1519V47.9083H27.2958V49.1866H22.5742V41.252H27.2958V42.5072H24.1519Z" fill="#6598FD"/>
<path d="M39.0334 41.252L37.0873 49.1866H35.141L33.6553 43.4285L32.1583 49.1866H30.2235L28.2773 41.252H29.9933L31.2485 47.4016L32.8262 41.252H34.5652L36.1544 47.4016L37.3636 41.252H39.0334Z" fill="#6598FD"/>
</svg>
